<?xml version="1.0" encoding="utf-8"?>
<!-- Generator: Adobe Illustrator 16.0.0, SVG Export Plug-In . SVG Version: 6.00 Build 0)  -->
<!DOCTYPE svg PUBLIC "-//W3C//DTD SVG 1.1//EN" "http://www.w3.org/Graphics/SVG/1.1/DTD/svg11.dtd">
<svg version="1.1" id="Layer_1" xmlns="http://www.w3.org/2000/svg" xmlns:xlink="http://www.w3.org/1999/xlink" x="0px" y="0px"
	 width="360px" height="400px" viewBox="0 0 360 400" enable-background="new 0 0 360 400" xml:space="preserve">
<g>
	<g>
		<path fill="#BBBBBB" d="M189.666,71.966c8.596-6.45,14.183-16.696,14.183-28.271c0-19.53-15.833-35.363-35.36-35.363
			c-19.526,0-35.36,15.833-35.36,35.363c0,11.575,5.587,21.82,14.183,28.271l-15.502,47.127c0,1.669,1.178,3.024,2.635,3.024h34.044
			h34.044c1.454,0,2.635-1.354,2.635-3.024L189.666,71.966z M185.68,54.643c-4.594,4.59-10.696,7.119-17.191,7.119
			s-12.597-2.529-17.191-7.119c-1.316-1.316-1.316-3.449,0-4.761c1.312-1.312,3.445-1.312,4.758,0c3.32,3.32,7.74,5.15,12.433,5.15
			c4.694,0,9.111-1.831,12.433-5.15c1.312-1.312,3.442-1.312,4.758,0C186.992,51.194,186.992,53.327,185.68,54.643z"/>
	</g>
</g>
<g>
	<path fill="#BBBBBB" d="M14.3,207.65v-28.066h7.708v11.463l9.329-11.463h7.906l-10.199,12.57l10.91,15.496h-8.064l-7.392-11.187
		l-2.49,2.846v8.341H14.3z"/>
	<path fill="#BBBBBB" d="M41.536,207.65v-28.066h7.708v21.346h12.729v6.72H41.536z"/>
	<path fill="#BBBBBB" d="M64.779,207.65v-28.066h7.708v28.066H64.779z"/>
	<path fill="#BBBBBB" d="M77.309,207.65v-28.066h7.708v11.463l9.329-11.463h7.906l-10.199,12.57l10.91,15.496H94.9l-7.392-11.187
		l-2.49,2.846v8.341H77.309z"/>
	<path fill="#BBBBBB" d="M104.544,207.65v-28.066h7.708v11.463l9.329-11.463h7.906l-10.199,12.57l10.91,15.496h-8.064l-7.392-11.187
		l-2.49,2.846v8.341H104.544z"/>
	<path fill="#BBBBBB" d="M164.748,179.584v28.066h-3.558v-12.768h-15.456v12.768h-3.558v-28.066h3.558v12.136h15.456v-12.136
		H164.748z"/>
	<path fill="#BBBBBB" d="M190.521,204.488v3.162h-19.053v-28.066h18.698v3.163h-15.14v9.092h13.164v2.964h-13.164v9.685H190.521z"/>
	<path fill="#BBBBBB" d="M195.58,207.65v-28.066h12.017c1.238,0,2.378,0.257,3.419,0.771c1.041,0.514,1.938,1.199,2.688,2.056
		s1.337,1.818,1.759,2.885c0.421,1.067,0.633,2.154,0.633,3.261c0,0.976-0.139,1.917-0.415,2.827
		c-0.277,0.909-0.672,1.733-1.187,2.47c-0.514,0.738-1.133,1.371-1.857,1.897c-0.726,0.527-1.535,0.909-2.432,1.146l6.8,10.752
		h-4.032l-6.403-10.08h-7.432v10.08H195.58z M199.138,194.408h8.498c0.738,0,1.403-0.158,1.997-0.475
		c0.593-0.316,1.1-0.744,1.521-1.285c0.421-0.54,0.751-1.166,0.988-1.877s0.355-1.449,0.355-2.214c0-0.791-0.138-1.535-0.415-2.233
		c-0.276-0.698-0.646-1.317-1.106-1.858c-0.462-0.54-1.002-0.961-1.621-1.265c-0.619-0.303-1.271-0.455-1.956-0.455h-8.262V194.408z
		"/>
	<path fill="#BBBBBB" d="M250.802,204.488v3.162h-19.053v-28.066h18.697v3.163h-15.14v9.092h13.163v2.964h-13.163v9.685H250.802z"/>
	<path fill="#BBBBBB" d="M255.861,207.65v-28.066h3.558v24.904h15.653v3.162H255.861z"/>
	<path fill="#BBBBBB" d="M279.184,207.65v-28.066h3.558v24.904h15.653v3.162H279.184z"/>
	<path fill="#BBBBBB" d="M321.558,204.488v3.162h-19.053v-28.066h18.697v3.163h-15.14v9.092h13.163v2.964h-13.163v9.685H321.558z"/>
	<path fill="#BBBBBB" d="M326.617,207.65v-28.066h12.017c1.238,0,2.378,0.257,3.419,0.771c1.041,0.514,1.938,1.199,2.688,2.056
		s1.337,1.818,1.759,2.885c0.421,1.067,0.633,2.154,0.633,3.261c0,0.976-0.139,1.917-0.415,2.827
		c-0.277,0.909-0.672,1.733-1.187,2.47c-0.514,0.738-1.133,1.371-1.857,1.897c-0.726,0.527-1.535,0.909-2.432,1.146l6.8,10.752
		h-4.032l-6.403-10.08h-7.432v10.08H326.617z M330.175,194.408h8.498c0.738,0,1.403-0.158,1.997-0.475
		c0.593-0.316,1.1-0.744,1.521-1.285c0.421-0.54,0.751-1.166,0.988-1.877s0.355-1.449,0.355-2.214c0-0.791-0.138-1.535-0.415-2.233
		c-0.276-0.698-0.646-1.317-1.106-1.858c-0.462-0.54-1.002-0.961-1.621-1.265c-0.619-0.303-1.271-0.455-1.956-0.455h-8.262V194.408z
		"/>
	<path fill="#BBBBBB" d="M13.951,257.062v-37.421H28.34c3.092,0,5.815,0.492,8.169,1.476c2.354,0.984,4.322,2.319,5.903,4.006
		s2.775,3.663,3.584,5.929c0.808,2.267,1.212,4.683,1.212,7.247c0,2.847-0.448,5.421-1.344,7.722
		c-0.896,2.302-2.17,4.27-3.821,5.903c-1.652,1.634-3.637,2.898-5.956,3.795c-2.319,0.896-4.902,1.344-7.748,1.344H13.951z
		 M36.773,238.299c0-1.439-0.193-2.758-0.58-3.952c-0.387-1.194-0.94-2.214-1.66-3.058c-0.721-0.843-1.608-1.502-2.662-1.977
		c-1.054-0.474-2.231-0.711-3.531-0.711h-4.111v19.501h4.111c1.335,0,2.53-0.245,3.584-0.738c1.054-0.491,1.941-1.177,2.662-2.055
		s1.265-1.915,1.634-3.11C36.588,241.005,36.773,239.705,36.773,238.299z"/>
	<path fill="#BBBBBB" d="M51.741,257.062v-37.421h17.182c1.827,0,3.513,0.378,5.06,1.133c1.545,0.756,2.872,1.739,3.979,2.952
		c1.107,1.212,1.977,2.601,2.609,4.163c0.633,1.564,0.949,3.136,0.949,4.718c0,2.179-0.474,4.208-1.423,6.087
		c-0.949,1.88-2.267,3.418-3.953,4.612l8.433,13.756H72.981l-7.115-11.49h-3.848v11.49H51.741z M62.019,236.612h6.483
		c0.632,0,1.22-0.351,1.766-1.054c0.544-0.702,0.817-1.687,0.817-2.951c0-1.3-0.316-2.293-0.949-2.979
		c-0.632-0.685-1.265-1.027-1.897-1.027h-6.219V236.612z"/>
	<path fill="#BBBBBB" d="M84.26,257.062l13.967-37.421h8.328l13.914,37.421h-10.857l-2.266-7.326h-9.961l-2.214,7.326H84.26z
		 M102.391,230.341l-3.479,12.544h6.799L102.391,230.341z"/>
	<path fill="#BBBBBB" d="M133.486,257.062v-37.421h25.668v8.96h-15.39v6.219h12.544v8.328h-12.544v13.914H133.486z"/>
	<path fill="#BBBBBB" d="M162.948,257.062v-37.421h10.278v37.421H162.948z"/>
	<path fill="#BBBBBB" d="M179.655,257.062v-37.421h10.277v28.461h16.972v8.96H179.655z"/>
	<path fill="#BBBBBB" d="M237.315,248.103v8.96h-26.669v-37.421h26.195v8.96h-15.918v5.271h13.599v8.327h-13.599v5.903H237.315z"/>
	<path fill="#BBBBBB" d="M242.11,257.062v-37.421h17.183c1.826,0,3.513,0.378,5.06,1.133c1.546,0.756,2.872,1.739,3.979,2.952
		c1.106,1.212,1.977,2.601,2.608,4.163c0.633,1.564,0.949,3.136,0.949,4.718c0,2.179-0.475,4.208-1.424,6.087
		c-0.948,1.88-2.266,3.418-3.952,4.612l8.433,13.756h-11.596l-7.115-11.49h-3.848v11.49H242.11z M252.388,236.612h6.483
		c0.633,0,1.221-0.351,1.766-1.054c0.544-0.702,0.816-1.687,0.816-2.951c0-1.3-0.315-2.293-0.948-2.979
		c-0.633-0.685-1.265-1.027-1.897-1.027h-6.22V236.612z"/>
	<path fill="#BBBBBB" d="M311.103,228.997v28.065h-3.558v-12.768h-15.456v12.768h-3.558v-28.065h3.558v12.135h15.456v-12.135
		H311.103z"/>
	<path fill="#BBBBBB" d="M317.822,257.062v-28.026h3.558v28.026H317.822z"/>
	<path fill="#BBBBBB" d="M348.378,232.159h-9.685v24.903h-3.558v-24.903h-9.685v-3.162h22.927V232.159z"/>
	<path fill="#BBBBBB" d="M14.628,299.886v-27.69h18.291v3.12H18.138v9.243h12.441v2.925H18.138v12.402H14.628z"/>
	<path fill="#BBBBBB" d="M47.973,300.081c-1.95,0-3.725-0.396-5.324-1.189c-1.599-0.793-2.971-1.846-4.114-3.159
		c-1.145-1.312-2.028-2.814-2.652-4.505c-0.624-1.689-0.936-3.418-0.936-5.187c0-1.846,0.332-3.614,0.994-5.305
		c0.663-1.689,1.58-3.185,2.75-4.484c1.17-1.3,2.555-2.334,4.154-3.101s3.334-1.15,5.207-1.15c1.95,0,3.718,0.409,5.304,1.229
		c1.586,0.818,2.951,1.892,4.095,3.217c1.144,1.326,2.028,2.828,2.652,4.505s0.936,3.387,0.936,5.129
		c0,1.846-0.332,3.614-0.995,5.304c-0.663,1.69-1.573,3.179-2.73,4.466c-1.157,1.287-2.535,2.314-4.134,3.081
		S49.845,300.081,47.973,300.081z M38.496,286.041c0,1.403,0.228,2.763,0.683,4.075c0.455,1.313,1.098,2.477,1.931,3.49
		c0.832,1.015,1.833,1.82,3.003,2.418c1.17,0.599,2.47,0.897,3.9,0.897c1.482,0,2.808-0.318,3.978-0.956
		c1.17-0.637,2.165-1.468,2.983-2.495s1.443-2.19,1.872-3.491c0.429-1.3,0.644-2.612,0.644-3.938c0-1.404-0.228-2.763-0.683-4.076
		c-0.455-1.312-1.105-2.47-1.95-3.471c-0.845-1.001-1.846-1.8-3.003-2.398c-1.157-0.598-2.438-0.896-3.841-0.896
		c-1.482,0-2.808,0.312-3.978,0.936s-2.165,1.443-2.983,2.457c-0.819,1.014-1.45,2.171-1.892,3.471
		C38.716,283.363,38.496,284.689,38.496,286.041z"/>
	<path fill="#BBBBBB" d="M65.171,299.886v-27.69h11.856c1.222,0,2.346,0.254,3.374,0.761c1.027,0.507,1.911,1.184,2.652,2.028
		c0.741,0.845,1.319,1.794,1.736,2.847c0.416,1.053,0.624,2.126,0.624,3.218c0,0.962-0.137,1.892-0.41,2.788
		c-0.273,0.897-0.663,1.71-1.17,2.438c-0.507,0.729-1.118,1.353-1.833,1.872c-0.715,0.521-1.515,0.897-2.398,1.131l6.708,10.608
		h-3.978l-6.318-9.945h-7.332v9.945H65.171z M68.682,286.82h8.385c0.728,0,1.385-0.155,1.97-0.468
		c0.585-0.312,1.085-0.734,1.501-1.268c0.416-0.532,0.741-1.15,0.975-1.853c0.234-0.702,0.351-1.43,0.351-2.184
		c0-0.78-0.136-1.515-0.409-2.203c-0.273-0.689-0.638-1.3-1.092-1.833c-0.455-0.533-0.988-0.949-1.599-1.248
		c-0.611-0.299-1.255-0.449-1.931-0.449h-8.151V286.82z"/>
	<path fill="#BBBBBB" d="M97.97,299.886l11.388-27.69h2.886l11.349,27.69h-3.744l-3.276-8.112h-11.622l-3.237,8.112H97.97z
		 M110.8,276.252l-5.148,12.792h10.14L110.8,276.252z M107.603,266.853c0-0.832,0.298-1.488,0.897-1.97
		c0.598-0.48,1.352-0.721,2.262-0.721c0.936,0,1.696,0.24,2.281,0.721c0.585,0.481,0.877,1.138,0.877,1.97
		c0,0.833-0.292,1.489-0.877,1.97c-0.585,0.481-1.345,0.722-2.281,0.722c-0.911,0-1.665-0.24-2.262-0.722
		C107.901,268.342,107.603,267.686,107.603,266.853z M110.762,265.371c-0.442,0-0.813,0.136-1.112,0.409
		c-0.299,0.273-0.448,0.631-0.448,1.072c0,0.416,0.149,0.768,0.448,1.053c0.299,0.287,0.669,0.43,1.112,0.43
		c0.416,0,0.786-0.137,1.111-0.41c0.325-0.272,0.487-0.63,0.487-1.072c0-0.441-0.156-0.799-0.468-1.072
		S111.203,265.371,110.762,265.371z"/>
	<path fill="#BBBBBB" d="M138.646,299.886v-27.69h3.51v24.57H157.6v3.12H138.646z"/>
	<path fill="#BBBBBB" d="M159.55,299.886l11.388-27.69h2.886l11.349,27.69h-3.743l-3.276-8.112h-11.622l-3.237,8.112H159.55z
		 M172.381,276.252l-5.148,12.792h10.14L172.381,276.252z"/>
	<path fill="#BBBBBB" d="M205.609,278.007c-0.312-0.364-0.729-0.715-1.248-1.053c-0.521-0.338-1.105-0.644-1.755-0.917
		c-0.65-0.272-1.359-0.493-2.126-0.663c-0.767-0.169-1.566-0.253-2.398-0.253c-2.158,0-3.738,0.403-4.738,1.209
		c-1.001,0.806-1.502,1.911-1.502,3.314c0,0.755,0.143,1.379,0.43,1.872c0.285,0.494,0.734,0.917,1.345,1.268
		c0.611,0.351,1.371,0.657,2.282,0.917c0.909,0.26,1.988,0.533,3.236,0.818c1.43,0.312,2.724,0.67,3.881,1.072
		c1.156,0.404,2.145,0.904,2.964,1.502c0.819,0.599,1.443,1.326,1.872,2.184c0.429,0.858,0.644,1.911,0.644,3.159
		c0,1.326-0.26,2.477-0.78,3.452c-0.521,0.975-1.229,1.781-2.125,2.418c-0.897,0.637-1.957,1.105-3.179,1.403
		c-1.223,0.299-2.549,0.449-3.978,0.449c-2.133,0-4.154-0.332-6.065-0.995c-1.91-0.663-3.646-1.631-5.206-2.905l1.677-2.964
		c0.416,0.442,0.956,0.884,1.619,1.326s1.416,0.838,2.262,1.189c0.845,0.351,1.755,0.637,2.729,0.857
		c0.976,0.222,1.995,0.332,3.062,0.332c1.976,0,3.511-0.352,4.603-1.054c1.092-0.701,1.638-1.755,1.638-3.158
		c0-0.78-0.176-1.437-0.526-1.97c-0.351-0.532-0.864-0.994-1.54-1.385c-0.677-0.39-1.516-0.734-2.516-1.033
		c-1.002-0.299-2.14-0.604-3.413-0.917c-1.403-0.337-2.639-0.701-3.705-1.092c-1.066-0.39-1.956-0.857-2.671-1.404
		c-0.716-0.546-1.255-1.209-1.619-1.988c-0.364-0.78-0.546-1.716-0.546-2.809c0-1.326,0.247-2.496,0.741-3.51
		s1.183-1.872,2.067-2.574c0.883-0.702,1.937-1.229,3.158-1.579c1.223-0.352,2.548-0.526,3.979-0.526
		c1.872,0,3.562,0.286,5.07,0.857c1.507,0.572,2.847,1.34,4.017,2.302L205.609,278.007z"/>
	<path fill="#BBBBBB" d="M233.689,275.315h-9.556v24.57h-3.51v-24.57h-9.555v-3.12h22.62V275.315z"/>
	<path fill="#BBBBBB" d="M257.284,296.766v3.12h-18.798v-27.69h18.446v3.12h-14.937v8.971h12.986v2.925h-12.986v9.555H257.284z"/>
	<path fill="#BBBBBB" d="M283.374,300.081c-1.95,0-3.725-0.396-5.323-1.189c-1.6-0.793-2.971-1.846-4.115-3.159
		c-1.144-1.312-2.027-2.814-2.651-4.505c-0.624-1.689-0.937-3.418-0.937-5.187c0-1.846,0.332-3.614,0.995-5.305
		c0.663-1.689,1.579-3.185,2.749-4.484s2.555-2.334,4.153-3.101c1.6-0.767,3.335-1.15,5.207-1.15c1.95,0,3.718,0.409,5.304,1.229
		c1.586,0.818,2.951,1.892,4.095,3.217c1.145,1.326,2.028,2.828,2.652,4.505s0.937,3.387,0.937,5.129
		c0,1.846-0.332,3.614-0.995,5.304c-0.663,1.69-1.573,3.179-2.729,4.466c-1.157,1.287-2.535,2.314-4.135,3.081
		C286.981,299.697,285.246,300.081,283.374,300.081z M273.897,286.041c0,1.403,0.227,2.763,0.682,4.075
		c0.455,1.313,1.099,2.477,1.931,3.49c0.832,1.015,1.833,1.82,3.003,2.418c1.17,0.599,2.47,0.897,3.9,0.897
		c1.482,0,2.808-0.318,3.978-0.956c1.17-0.637,2.165-1.468,2.984-2.495c0.818-1.027,1.442-2.19,1.871-3.491
		c0.43-1.3,0.644-2.612,0.644-3.938c0-1.404-0.228-2.763-0.682-4.076c-0.456-1.312-1.105-2.47-1.95-3.471
		c-0.846-1.001-1.847-1.8-3.003-2.398c-1.157-0.598-2.438-0.896-3.842-0.896c-1.482,0-2.808,0.312-3.979,0.936
		c-1.17,0.624-2.164,1.443-2.983,2.457c-0.818,1.014-1.449,2.171-1.892,3.471C274.117,283.363,273.897,284.689,273.897,286.041z"/>
	<path fill="#BBBBBB" d="M302.133,299.886v-27.69h11.544c1.222,0,2.346,0.254,3.373,0.761s1.911,1.184,2.652,2.028
		s1.319,1.794,1.735,2.847c0.415,1.053,0.624,2.126,0.624,3.218c0,1.145-0.195,2.249-0.585,3.314
		c-0.391,1.066-0.943,2.016-1.657,2.848c-0.716,0.832-1.574,1.495-2.574,1.989c-1.001,0.494-2.113,0.74-3.335,0.74h-8.268v9.945
		H302.133z M305.643,286.82h8.073c0.728,0,1.384-0.148,1.969-0.448c0.585-0.299,1.086-0.715,1.502-1.248
		c0.415-0.532,0.741-1.15,0.975-1.853c0.234-0.702,0.352-1.442,0.352-2.223c0-0.806-0.137-1.561-0.41-2.262
		c-0.272-0.702-0.637-1.312-1.092-1.833s-0.988-0.923-1.599-1.209c-0.611-0.286-1.255-0.43-1.931-0.43h-7.839V286.82z"/>
	<path fill="#BBBBBB" d="M327.132,299.886v-27.69h11.544c1.222,0,2.346,0.254,3.373,0.761s1.911,1.184,2.652,2.028
		s1.319,1.794,1.735,2.847c0.415,1.053,0.624,2.126,0.624,3.218c0,1.145-0.195,2.249-0.585,3.314
		c-0.391,1.066-0.943,2.016-1.657,2.848c-0.716,0.832-1.574,1.495-2.574,1.989c-1.001,0.494-2.113,0.74-3.335,0.74h-8.268v9.945
		H327.132z M330.642,286.82h8.073c0.728,0,1.384-0.148,1.969-0.448c0.585-0.299,1.086-0.715,1.502-1.248
		c0.415-0.532,0.741-1.15,0.975-1.853c0.234-0.702,0.352-1.442,0.352-2.223c0-0.806-0.137-1.561-0.41-2.262
		c-0.272-0.702-0.637-1.312-1.092-1.833s-0.988-0.923-1.599-1.209c-0.611-0.286-1.255-0.43-1.931-0.43h-7.839V286.82z"/>
	<path fill="#BBBBBB" d="M71.44,363.204c0,3.058-0.637,5.685-1.911,7.882c-1.274,2.197-3.025,3.997-5.254,5.397
		c-2.23,1.401-4.824,2.436-7.786,3.104s-6.099,1.003-9.41,1.003H13.74v-67.826h39.358c2.355,0,4.49,0.511,6.401,1.529
		c1.91,1.02,3.534,2.34,4.872,3.964s2.372,3.472,3.105,5.541c0.731,2.07,1.099,4.188,1.099,6.353c0,3.186-0.812,6.226-2.436,9.123
		c-1.624,2.898-4.06,5.079-7.308,6.544c3.884,1.146,6.957,3.138,9.219,5.971C70.309,354.623,71.44,358.428,71.44,363.204z
		 M32.369,328.623v10.412h12.705c1.273,0,2.436-0.349,3.487-1.051c1.051-0.699,1.577-2.102,1.577-4.203
		c0-1.846-0.447-3.167-1.337-3.964c-0.893-0.796-1.944-1.194-3.153-1.194H32.369z M52.525,359.384c0-1.656-0.446-3.041-1.337-4.156
		c-0.893-1.113-2.039-1.672-3.439-1.672h-15.38v11.368H47.08c1.528,0,2.818-0.478,3.869-1.433
		C52,362.536,52.525,361.167,52.525,359.384z"/>
	<path fill="#BBBBBB" d="M79.56,380.591v-67.826h18.628v67.826H79.56z"/>
	<path fill="#BBBBBB" d="M106.02,380.591v-67.826h18.628v51.586h30.76v16.24H106.02z"/>
	<path fill="#BBBBBB" d="M162.19,380.591v-67.826h26.079c5.604,0,10.54,0.894,14.808,2.675c4.266,1.784,7.833,4.204,10.699,7.261
		s5.03,6.64,6.496,10.747c1.464,4.107,2.197,8.487,2.197,13.135c0,5.159-0.812,9.825-2.437,13.995
		c-1.624,4.172-3.933,7.738-6.926,10.699c-2.994,2.962-6.592,5.255-10.795,6.879s-8.884,2.436-14.043,2.436H162.19z
		 M203.555,346.582c0-2.61-0.351-4.998-1.051-7.164c-0.701-2.164-1.705-4.013-3.009-5.541c-1.307-1.528-2.914-2.723-4.824-3.582
		c-1.911-0.86-4.046-1.29-6.401-1.29h-7.451v35.346h7.451c2.42,0,4.586-0.444,6.496-1.337c1.911-0.892,3.519-2.133,4.824-3.726
		c1.305-1.592,2.293-3.471,2.962-5.637C203.221,351.487,203.555,349.131,203.555,346.582z"/>
	<path fill="#BBBBBB" d="M279.022,364.351v16.24h-48.338v-67.826h47.479v16.24h-28.851v9.553h24.646v15.094h-24.646v10.699H279.022z
		"/>
	<path fill="#BBBBBB" d="M287.714,380.591v-67.826h31.143c3.311,0,6.367,0.686,9.171,2.055c2.802,1.37,5.206,3.152,7.213,5.35
		c2.006,2.197,3.582,4.714,4.729,7.547c1.146,2.834,1.719,5.684,1.719,8.55c0,3.949-0.859,7.627-2.579,11.033
		c-1.72,3.408-4.107,6.194-7.164,8.358l15.284,24.934h-21.017l-12.896-20.825h-6.974v20.825H287.714z M306.342,343.525h11.75
		c1.146,0,2.213-0.636,3.201-1.91c0.986-1.273,1.48-3.058,1.48-5.35c0-2.355-0.573-4.156-1.72-5.397
		c-1.146-1.242-2.293-1.863-3.439-1.863h-11.272V343.525z"/>
</g>
</svg>
