<?xml version="1.0" encoding="utf-8"?>
<!-- Generator: Adobe Illustrator 16.0.0, SVG Export Plug-In . SVG Version: 6.00 Build 0)  -->
<!DOCTYPE svg PUBLIC "-//W3C//DTD SVG 1.1//EN" "http://www.w3.org/Graphics/SVG/1.1/DTD/svg11.dtd">
<svg version="1.1" id="Layer_1" xmlns="http://www.w3.org/2000/svg" xmlns:xlink="http://www.w3.org/1999/xlink" x="0px" y="0px"
	 width="300px" height="300px" viewBox="0 0 300 300" enable-background="new 0 0 300 300" xml:space="preserve">
<g display="none">
	<path display="inline" fill="#05CC8E" d="M149.997,5.377v69.059h19.657v121.891h34.404V229.1h-54.061v65.523
		c79.879,0,144.631-64.752,144.631-144.622C294.628,70.128,229.876,5.377,149.997,5.377z"/>
	<path display="inline" fill="#00DEA7" d="M94.087,229.1v-32.772h38.463v-82.074c-1.621,2.166-4.159,4.382-7.584,6.638
		c-3.433,2.259-7.227,4.382-11.374,6.362c-4.155,1.99-8.492,3.617-13.003,4.877c-4.518,1.265-8.492,1.896-11.921,1.896v-33.857
		c3.255,0,7.223-1.037,11.921-3.114c4.694-2.075,9.303-4.56,13.814-7.448c4.511-2.888,8.488-5.732,11.917-8.533
		c3.429-2.798,5.504-5.011,6.23-6.637h17.446V5.377c-79.873,0-144.625,64.75-144.625,144.624
		c0,79.87,64.752,144.622,144.625,144.622V229.1H94.087z"/>
</g>
<g display="none">
	<path display="inline" fill="#05CC8E" d="M169.907,128.183c1.994-2.636,2.991-5.683,2.991-9.138c0-5.449-2.177-10.128-6.542-14.042
		c-3.899-3.491-9.412-5.333-16.356-5.704v43.144c4.244-2.303,7.941-4.469,11.042-6.489
		C164.951,133.409,167.9,130.818,169.907,128.183z"/>
	<path display="inline" fill="#05CC8E" d="M150,5.375v62.092c1.376-0.05,2.685-0.224,4.09-0.224c9.262,0,17.539,1.139,24.803,3.409
		c7.268,2.273,13.413,5.453,18.411,9.54c4.999,4.092,8.808,9,11.45,14.725c2.629,5.728,3.956,11.957,3.956,18.679
		c0,6.365-1.191,11.996-3.551,16.904c-2.354,4.906-5.36,9.268-8.986,13.084c-3.64,3.817-7.596,7.136-11.87,9.951
		c-4.274,2.823-8.411,5.317-12.401,7.505c-3.275,1.813-6.777,3.808-10.497,5.997c-3.73,2.177-7.413,4.59-11.041,7.219
		c-1.519,1.106-2.953,2.271-4.364,3.454v14.957h65.703v32.991H150v68.967c79.874,0,144.623-64.752,144.623-144.627
		C294.623,70.125,229.874,5.375,150,5.375z"/>
	<path display="inline" fill="#00DEA7" d="M84.286,225.658c0-8.185,0.634-15.588,1.915-22.222
		c1.271-6.631,3.537-12.771,6.812-18.404c3.277-5.635,7.628-10.91,13.093-15.818c5.454-4.909,12.448-9.721,20.995-14.449
		c7.266-3.995,13.764-7.499,19.487-10.497c1.184-0.62,2.307-1.224,3.413-1.825V99.299c-0.823-0.046-1.581-0.156-2.448-0.156
		c-4.366,0-8.366,0.595-12.006,1.776c-3.64,1.18-7.039,2.771-10.225,4.767c-3.174,2.001-6.086,4.226-8.717,6.68
		c-2.643,2.456-5.044,5.047-7.231,7.773L85.928,93.146c2.359-2.544,5.726-5.319,10.089-8.314c4.354-2.999,9.489-5.816,15.395-8.452
		c5.918-2.636,12.458-4.814,19.635-6.546c5.951-1.428,12.323-2.12,18.954-2.366V5.375c-79.873,0-144.625,64.75-144.625,144.624
		c0,79.875,64.752,144.627,144.625,144.627v-68.967H84.286z"/>
	<path display="inline" fill="#00DEA7" d="M137.463,192.667H150V177.71c-1.962,1.644-3.851,3.34-5.59,5.14
		C141.407,185.944,139.095,189.209,137.463,192.667z"/>
</g>
<g>
	<path fill="#05CC8E" d="M150.028,4.849v96.741L245.283,150l-95.255,48.422v96.729c80.161,0,145.147-64.987,145.147-145.151
		C295.176,69.835,230.189,4.849,150.028,4.849z"/>
	<path fill="#00DEA7" d="M90.547,228.652L111.925,150L90.547,71.354l59.481,30.235V4.849C69.863,4.849,4.876,69.835,4.876,150
		c0,80.164,64.987,145.151,145.152,145.151v-96.729L90.547,228.652z"/>
</g>
</svg>
