<?xml version="1.0" encoding="utf-8"?>
<!-- Generator: Adobe Illustrator 16.0.0, SVG Export Plug-In . SVG Version: 6.00 Build 0)  -->
<!DOCTYPE svg PUBLIC "-//W3C//DTD SVG 1.1//EN" "http://www.w3.org/Graphics/SVG/1.1/DTD/svg11.dtd">
<svg version="1.1" id="Layer_1" xmlns="http://www.w3.org/2000/svg" xmlns:xlink="http://www.w3.org/1999/xlink" x="0px" y="0px"
	 width="100px" height="100px" viewBox="0 0 100 100" enable-background="new 0 0 100 100" xml:space="preserve">
<circle fill="#FFFFFF" cx="50.5" cy="50" r="42.704"/>
<g display="none">
	<path display="inline" fill="#00DEA7" d="M44.614,72.748V55.886H27.752c-3.25,0-5.886-2.637-5.886-5.886
		c0-3.25,2.635-5.886,5.886-5.886h16.862V27.252c0-3.25,2.635-5.886,5.886-5.886V1.607C23.773,1.607,2.107,23.273,2.107,50
		c0,26.727,21.666,48.393,48.393,48.393V78.634C47.25,78.634,44.614,75.999,44.614,72.748z"/>
	<path display="inline" fill="#05CC8E" d="M50.5,1.607v19.76c3.249,0,5.886,2.635,5.886,5.886v16.862h16.862
		c3.251,0,5.886,2.635,5.886,5.886c0,3.249-2.635,5.886-5.886,5.886H56.386v16.862c0,3.251-2.637,5.886-5.886,5.886v19.759
		c26.727,0,48.393-21.666,48.393-48.393C98.893,23.273,77.227,1.607,50.5,1.607z"/>
</g>
<g display="none">
	<path display="inline" fill="#00DEA7" d="M38.576,70.247c-1.148,1.149-2.655,1.725-4.161,1.725s-3.013-0.575-4.162-1.725
		c-2.299-2.299-2.299-6.025,0-8.322L42.177,50L30.253,38.076c-2.299-2.298-2.299-6.024,0-8.323c2.297-2.299,6.026-2.299,8.323,0
		L50.5,41.677V1.607C23.773,1.607,2.107,23.273,2.107,50c0,26.727,21.666,48.393,48.393,48.393v-40.07L38.576,70.247z"/>
	<path display="inline" fill="#05CC8E" d="M50.5,1.607v40.07l11.925-11.924c2.295-2.299,6.023-2.299,8.322,0
		c2.3,2.298,2.3,6.025,0,8.323L58.822,50l11.925,11.925c2.3,2.297,2.3,6.023,0,8.322c-1.149,1.149-2.655,1.725-4.161,1.725
		s-3.014-0.575-4.161-1.725L50.5,58.322v40.07c26.727,0,48.393-21.666,48.393-48.393C98.893,23.273,77.227,1.607,50.5,1.607z"/>
</g>
<g>
	<path fill="#00DEA7" d="M27.75,55.886c-3.25,0-5.886-2.635-5.886-5.885c0-3.25,2.636-5.886,5.886-5.886H50.5V1.607
		C23.773,1.607,2.108,23.273,2.108,50c0,26.727,21.665,48.393,48.392,48.393V55.886H27.75z"/>
	<path fill="#05CC8E" d="M50.5,1.607v42.508h22.746c3.249,0,5.886,2.635,5.886,5.886c0,3.25-2.637,5.885-5.886,5.885H50.5v42.507
		c26.727,0,48.393-21.666,48.393-48.393C98.893,23.273,77.227,1.607,50.5,1.607z"/>
</g>
</svg>
