<?xml version="1.0" encoding="utf-8"?>
<!-- Generator: Adobe Illustrator 16.0.0, SVG Export Plug-In . SVG Version: 6.00 Build 0)  -->
<!DOCTYPE svg PUBLIC "-//W3C//DTD SVG 1.1//EN" "http://www.w3.org/Graphics/SVG/1.1/DTD/svg11.dtd">
<svg version="1.1" id="Layer_1" xmlns="http://www.w3.org/2000/svg" xmlns:xlink="http://www.w3.org/1999/xlink" x="0px" y="0px"
	 width="400px" height="230px" viewBox="0 0 400 230" enable-background="new 0 0 400 230" xml:space="preserve">
<g>
	<g>
		<path fill="#00DEA7" d="M26.937,209.938h323.55c1.155,0,2.092-0.936,2.092-2.09c0-1.155-0.937-2.092-2.092-2.092H26.937
			c-1.155,0-2.091,0.937-2.091,2.092C24.846,209.002,25.781,209.938,26.937,209.938z"/>
	</g>
	<g>
		<rect x="49.936" y="125.261" fill="#F6F6F6" width="22.998" height="82.587"/>
	</g>
	<g>
		<path fill="#00DEA7" d="M47.845,123.17h27.18v86.768h-27.18V123.17z M70.843,127.352H52.025v78.404h18.817V127.352z"/>
	</g>
	<g>
		<polygon fill="#F6F6F6" points="82.342,207.324 96.978,207.324 96.978,100.171 88.092,100.171 88.092,107.489 82.342,107.489 		
			"/>
		<path fill="#00DEA7" d="M80.251,105.398h5.75v-7.318h13.067v111.334H80.251V105.398z M94.888,102.262h-4.704v7.318h-5.75v95.654
			h10.454V102.262z"/>
	</g>
	<g>
		<rect x="160.747" y="56.788" fill="#FFFFFF" width="22.999" height="151.06"/>
	</g>
	<g>
		<rect x="183.746" y="56.788" fill="#F6F6F6" width="7.84" height="148.447"/>
	</g>
	<g>
		<rect x="185.313" y="99.125" fill="#E5E5E5" width="4.705" height="2.091"/>
	</g>
	<g>
		<rect x="162.315" y="99.125" fill="#F6F6F6" width="18.817" height="2.091"/>
	</g>
	<g>
		<rect x="185.313" y="105.398" fill="#726F6F" width="4.705" height="2.09"/>
	</g>
	<g>
		<rect x="162.315" y="105.398" fill="#F6F6F6" width="18.817" height="2.09"/>
	</g>
	<g>
		<rect x="185.313" y="111.67" fill="#726F6F" width="4.705" height="2.091"/>
	</g>
	<g>
		<rect x="162.315" y="111.67" fill="#F6F6F6" width="18.817" height="2.091"/>
	</g>
	<g>
		<rect x="185.313" y="117.943" fill="#726F6F" width="4.705" height="2.09"/>
	</g>
	<g>
		<rect x="162.315" y="117.943" fill="#F6F6F6" width="18.817" height="2.09"/>
	</g>
	<g>
		<rect x="185.313" y="124.216" fill="#726F6F" width="4.705" height="2.091"/>
	</g>
	<g>
		<rect x="162.315" y="124.216" fill="#F6F6F6" width="18.817" height="2.091"/>
	</g>
	<g>
		<rect x="185.313" y="130.487" fill="#726F6F" width="4.705" height="2.092"/>
	</g>
	<g>
		<rect x="162.315" y="130.487" fill="#F6F6F6" width="18.817" height="2.092"/>
	</g>
	<g>
		<rect x="185.313" y="136.76" fill="#726F6F" width="4.705" height="2.091"/>
	</g>
	<g>
		<rect x="162.315" y="136.76" fill="#F6F6F6" width="18.817" height="2.091"/>
	</g>
	<g>
		<rect x="185.313" y="143.032" fill="#726F6F" width="4.705" height="2.091"/>
	</g>
	<g>
		<rect x="162.315" y="143.032" fill="#F6F6F6" width="18.817" height="2.091"/>
	</g>
	<g>
		<rect x="185.313" y="149.305" fill="#726F6F" width="4.705" height="2.091"/>
	</g>
	<g>
		<rect x="162.315" y="149.305" fill="#F6F6F6" width="18.817" height="2.091"/>
	</g>
	<g>
		<rect x="185.313" y="155.577" fill="#726F6F" width="4.705" height="2.091"/>
	</g>
	<g>
		<rect x="162.315" y="155.577" fill="#F6F6F6" width="18.817" height="2.091"/>
	</g>
	<g>
		<rect x="185.313" y="161.85" fill="#726F6F" width="4.705" height="2.091"/>
	</g>
	<g>
		<rect x="162.315" y="161.85" fill="#F6F6F6" width="18.817" height="2.091"/>
	</g>
	<g>
		<rect x="185.313" y="168.122" fill="#726F6F" width="4.705" height="2.091"/>
	</g>
	<g>
		<rect x="162.315" y="168.122" fill="#F6F6F6" width="18.817" height="2.091"/>
	</g>
	<g>
		<rect x="185.313" y="174.395" fill="#726F6F" width="4.705" height="2.091"/>
	</g>
	<g>
		<rect x="162.315" y="174.395" fill="#F6F6F6" width="18.817" height="2.091"/>
	</g>
	<g>
		<rect x="185.313" y="180.666" fill="#726F6F" width="4.705" height="2.092"/>
	</g>
	<g>
		<rect x="162.315" y="180.666" fill="#F6F6F6" width="18.817" height="2.092"/>
	</g>
	<g>
		<rect x="185.313" y="186.939" fill="#726F6F" width="4.705" height="2.09"/>
	</g>
	<g>
		<rect x="162.315" y="186.939" fill="#F6F6F6" width="18.817" height="2.09"/>
	</g>
	<g>
		<rect x="185.313" y="193.212" fill="#726F6F" width="4.705" height="2.09"/>
	</g>
	<g>
		<rect x="162.315" y="193.212" fill="#F6F6F6" width="18.817" height="2.09"/>
	</g>
	<g>
		<rect x="185.313" y="199.484" fill="#726F6F" width="4.705" height="2.091"/>
	</g>
	<g>
		<rect x="162.315" y="199.484" fill="#F6F6F6" width="18.817" height="2.091"/>
	</g>
	<g>
		<rect x="181.133" y="56.265" fill="#00DEA7" width="4.181" height="151.583"/>
	</g>
	<g>
		<path fill="#00DEA7" d="M158.134,54.173h36.065v155.764h-36.065V54.173z M190.019,58.355h-27.703v147.401h27.703V58.355z"/>
	</g>
	<g>
		<rect x="181.655" y="102.785" fill="#FFFFFF" width="18.294" height="9.932"/>
	</g>
	<g>
		<rect x="177.474" y="112.716" fill="#FFFFFF" width="44.429" height="95.131"/>
	</g>
	<g>
		<g>
			<rect x="218.767" y="45.81" fill="#FFFFFF" width="18.817" height="162.038"/>
			<path fill="#00DEA7" d="M216.676,43.72h22.999v166.218h-22.999V43.72z M235.493,47.901h-14.636v157.854h14.636V47.901z"/>
		</g>
		<g>
			<rect x="222.948" y="49.992" fill="#F6F6F6" width="2.091" height="153.673"/>
		</g>
		<g>
			<rect x="227.13" y="49.992" fill="#F6F6F6" width="2.091" height="153.673"/>
		</g>
		<g>
			<rect x="231.312" y="49.992" fill="#F6F6F6" width="2.091" height="153.673"/>
		</g>
	</g>
	<g>
		<rect x="231.834" y="83.444" fill="#FFFFFF" width="30.316" height="124.403"/>
		<path fill="#00DEA7" d="M229.743,81.354h34.498v128.583h-34.498V81.354z M260.061,85.536h-26.136v120.22h26.136V85.536z"/>
	</g>
	<g>
		<rect x="258.492" y="118.989" fill="#FFFFFF" width="16.727" height="88.858"/>
	</g>
	<g>
		<path fill="#00DEA7" d="M256.4,116.897h20.908v93.04H256.4V116.897z M273.127,121.079h-12.545v84.677h12.545V121.079z"/>
	</g>
	<g>
		<rect x="273.127" y="114.807" fill="#FFFFFF" width="29.271" height="93.041"/>
	</g>
	<g>
		<rect x="294.035" y="114.807" fill="#F6F6F6" width="8.887" height="92.518"/>
	</g>
	<g>
		<path fill="#00DEA7" d="M271.037,112.716h33.453v97.221h-33.453V112.716z M300.309,116.897h-25.09v88.858h25.09V116.897z"/>
	</g>
	<g>
		<rect x="299.262" y="156.1" fill="#FFFFFF" width="21.432" height="51.748"/>
	</g>
	<g>
		<rect x="314.943" y="158.191" fill="#F6F6F6" width="4.182" height="47.564"/>
	</g>
	<g>
		<path fill="#00DEA7" d="M297.172,154.009h25.612v55.929h-25.612V154.009z M318.603,158.191h-17.249v47.564h17.249V158.191z"/>
	</g>
	<g>
		<rect x="311.285" y="156.1" fill="#00DEA7" width="4.182" height="51.748"/>
	</g>
	<g>
		<rect x="301.354" y="162.372" fill="#F6F6F6" width="9.932" height="2.091"/>
	</g>
	<g>
		<rect x="307.625" y="158.191" fill="#F6F6F6" width="2.092" height="4.181"/>
	</g>
	<g>
		<rect x="302.922" y="158.191" fill="#F6F6F6" width="2.09" height="4.181"/>
	</g>
	<g>
		<rect x="307.625" y="165.509" fill="#F6F6F6" width="2.092" height="39.202"/>
	</g>
	<g>
		<rect x="302.922" y="165.509" fill="#F6F6F6" width="2.09" height="39.202"/>
	</g>
	<g>
		<rect x="291.945" y="114.807" fill="#00DEA7" width="4.182" height="93.041"/>
	</g>
	<g>
		<rect x="249.605" y="150.873" fill="#F6F6F6" width="3.137" height="4.182"/>
	</g>
	<g>
		<rect x="244.901" y="150.873" fill="#F6F6F6" width="3.137" height="4.182"/>
	</g>
	<g>
		<rect x="240.197" y="150.873" fill="#F6F6F6" width="3.137" height="4.182"/>
	</g>
	<g>
		<rect x="235.493" y="150.873" fill="#F6F6F6" width="3.136" height="4.182"/>
	</g>
	<g>
		<rect x="235.493" y="158.713" fill="#F6F6F6" width="3.136" height="4.183"/>
	</g>
	<g>
		<rect x="235.493" y="166.555" fill="#F6F6F6" width="3.136" height="4.181"/>
	</g>
	<g>
		<rect x="235.493" y="174.395" fill="#F6F6F6" width="3.136" height="4.182"/>
	</g>
	<g>
		<rect x="235.493" y="182.235" fill="#F6F6F6" width="3.136" height="4.181"/>
	</g>
	<g>
		<rect x="235.493" y="190.075" fill="#F6F6F6" width="3.136" height="4.183"/>
	</g>
	<g>
		<rect x="235.493" y="197.916" fill="#F6F6F6" width="3.136" height="4.182"/>
	</g>
	<g>
		<rect x="275.219" y="121.603" fill="#F6F6F6" width="16.727" height="4.181"/>
	</g>
	<g>
		<rect x="285.672" y="116.897" fill="#F6F6F6" width="4.182" height="5.75"/>
	</g>
	<g>
		<rect x="277.309" y="116.897" fill="#F6F6F6" width="4.182" height="5.75"/>
	</g>
	<g>
		<rect x="285.672" y="125.261" fill="#F6F6F6" width="4.182" height="79.45"/>
	</g>
	<g>
		<rect x="277.309" y="125.261" fill="#F6F6F6" width="4.182" height="79.45"/>
	</g>
	<g>
		<rect x="254.311" y="85.536" fill="#00DEA7" width="4.182" height="120.22"/>
	</g>
	<g>
		<rect x="288.285" y="106.966" fill="#E0E0E0" width="7.842" height="6.795"/>
	</g>
	<g>
		<path fill="#00DEA7" d="M286.195,104.875h12.021v10.977h-12.021V104.875z M294.035,109.057h-3.658v2.613h3.658V109.057z"/>
	</g>
	<g>
		<rect x="240.197" y="154.009" fill="#FFFFFF" width="35.543" height="53.839"/>
	</g>
	<g>
		<rect x="263.719" y="154.009" fill="#F6F6F6" width="12.021" height="53.315"/>
	</g>
	<g>
		<path fill="#00DEA7" d="M238.106,151.919h39.726v58.019h-39.726V151.919z M273.65,156.1h-31.362v49.656h31.362V156.1z"/>
	</g>
	<g>
		<rect x="261.105" y="154.009" fill="#00DEA7" width="4.182" height="53.839"/>
	</g>
	<g>
		<rect x="244.379" y="168.122" fill="#F6F6F6" width="15.158" height="4.181"/>
	</g>
	<g>
		<rect x="244.379" y="175.962" fill="#F6F6F6" width="15.158" height="4.183"/>
	</g>
	<g>
		<rect x="244.379" y="183.803" fill="#F6F6F6" width="15.158" height="4.182"/>
	</g>
	<g>
		<rect x="244.379" y="191.644" fill="#F6F6F6" width="15.158" height="4.182"/>
	</g>
	<g>
		<rect x="267.9" y="123.17" fill="#F6F6F6" width="2.091" height="28.749"/>
	</g>
	<g>
		<rect x="264.764" y="123.17" fill="#F6F6F6" width="2.092" height="28.749"/>
	</g>
	<g>
		<rect x="261.628" y="123.17" fill="#F6F6F6" width="2.091" height="28.749"/>
	</g>
	<g>
		<path fill="#F6F6F6" d="M342.1,207.848h-35.77c-0.828-1.187-1.318-2.626-1.318-4.183c0-4.042,3.277-7.317,7.318-7.317
			c2.539,0,4.774,1.294,6.087,3.258c1.133-0.735,2.48-1.167,3.931-1.167c0.199,0,0.395,0.014,0.589,0.029
			c1.386-2.212,3.839-3.688,6.643-3.688c4.33,0,7.841,3.511,7.841,7.841c0,0.033-0.005,0.065-0.006,0.1
			C339.926,203.179,341.867,205.265,342.1,207.848z"/>
		<path fill="#00DEA7" d="M304.615,209.044c-1.108-1.587-1.693-3.447-1.693-5.379c0-5.188,4.22-9.407,9.408-9.407
			c2.512,0,4.882,0.995,6.627,2.73c0.932-0.364,1.916-0.578,2.92-0.629c1.877-2.317,4.676-3.671,7.702-3.671
			c4.974,0,9.104,3.676,9.821,8.453c2.632,1.104,4.519,3.596,4.782,6.518c0.053,0.586-0.144,1.165-0.539,1.598
			c-0.396,0.434-0.956,0.681-1.544,0.681h-35.77C305.646,209.938,305.006,209.604,304.615,209.044z M337.037,204.774
			c-1.004-0.183-1.729-1.067-1.713-2.088c0-0.024,0.002-0.072,0.004-0.113c-0.025-3.148-2.594-5.702-5.749-5.702
			c-1.988,0-3.81,1.011-4.87,2.707c-0.414,0.66-1.158,1.032-1.938,0.975c-1.108-0.09-2.259,0.186-3.214,0.807
			c-0.959,0.622-2.242,0.358-2.878-0.592c-0.975-1.459-2.601-2.329-4.349-2.329c-2.883,0-5.227,2.345-5.227,5.227
			c0,0.728,0.148,1.436,0.438,2.091h31.39C338.423,205.261,337.77,204.909,337.037,204.774z"/>
	</g>
	<g>
		<rect x="236.016" y="67.241" fill="#FFFFFF" width="8.363" height="15.681"/>
		<path fill="#00DEA7" d="M233.925,65.15h12.545v19.862h-12.545V65.15z M242.288,69.332h-4.182v11.499h4.182V69.332z"/>
	</g>
	<g>
		<rect x="242.288" y="56.265" fill="#00DEA7" width="4.182" height="10.454"/>
	</g>
	<g>
		<rect x="249.605" y="88.149" fill="#F6F6F6" width="3.137" height="4.182"/>
	</g>
	<g>
		<rect x="244.901" y="88.149" fill="#F6F6F6" width="3.137" height="4.182"/>
	</g>
	<g>
		<rect x="240.197" y="88.149" fill="#F6F6F6" width="3.137" height="4.182"/>
	</g>
	<g>
		<rect x="235.493" y="88.149" fill="#F6F6F6" width="3.136" height="4.182"/>
	</g>
	<g>
		<rect x="249.605" y="95.99" fill="#F6F6F6" width="3.137" height="4.182"/>
	</g>
	<g>
		<rect x="244.901" y="95.99" fill="#F6F6F6" width="3.137" height="4.182"/>
	</g>
	<g>
		<rect x="240.197" y="95.99" fill="#F6F6F6" width="3.137" height="4.182"/>
	</g>
	<g>
		<rect x="235.493" y="95.99" fill="#F6F6F6" width="3.136" height="4.182"/>
	</g>
	<g>
		<rect x="249.605" y="103.83" fill="#F6F6F6" width="3.137" height="4.182"/>
	</g>
	<g>
		<rect x="244.901" y="103.83" fill="#F6F6F6" width="3.137" height="4.182"/>
	</g>
	<g>
		<rect x="240.197" y="103.83" fill="#F6F6F6" width="3.137" height="4.182"/>
	</g>
	<g>
		<rect x="235.493" y="103.83" fill="#F6F6F6" width="3.136" height="4.182"/>
	</g>
	<g>
		<rect x="249.605" y="111.67" fill="#F6F6F6" width="3.137" height="4.182"/>
	</g>
	<g>
		<rect x="244.901" y="111.67" fill="#F6F6F6" width="3.137" height="4.182"/>
	</g>
	<g>
		<rect x="240.197" y="111.67" fill="#F6F6F6" width="3.137" height="4.182"/>
	</g>
	<g>
		<rect x="235.493" y="111.67" fill="#F6F6F6" width="3.136" height="4.182"/>
	</g>
	<g>
		<rect x="249.605" y="119.511" fill="#F6F6F6" width="3.137" height="4.182"/>
	</g>
	<g>
		<rect x="244.901" y="119.511" fill="#F6F6F6" width="3.137" height="4.182"/>
	</g>
	<g>
		<rect x="240.197" y="119.511" fill="#F6F6F6" width="3.137" height="4.182"/>
	</g>
	<g>
		<rect x="235.493" y="119.511" fill="#F6F6F6" width="3.136" height="4.182"/>
	</g>
	<g>
		<rect x="249.605" y="127.352" fill="#F6F6F6" width="3.137" height="4.182"/>
	</g>
	<g>
		<rect x="244.901" y="127.352" fill="#F6F6F6" width="3.137" height="4.182"/>
	</g>
	<g>
		<rect x="240.197" y="127.352" fill="#F6F6F6" width="3.137" height="4.182"/>
	</g>
	<g>
		<rect x="235.493" y="127.352" fill="#F6F6F6" width="3.136" height="4.182"/>
	</g>
	<g>
		<rect x="249.605" y="135.192" fill="#F6F6F6" width="3.137" height="4.181"/>
	</g>
	<g>
		<rect x="244.901" y="135.192" fill="#F6F6F6" width="3.137" height="4.181"/>
	</g>
	<g>
		<rect x="240.197" y="135.192" fill="#F6F6F6" width="3.137" height="4.181"/>
	</g>
	<g>
		<rect x="235.493" y="135.192" fill="#F6F6F6" width="3.136" height="4.181"/>
	</g>
	<g>
		<rect x="249.605" y="143.032" fill="#F6F6F6" width="3.137" height="4.182"/>
	</g>
	<g>
		<rect x="244.901" y="143.032" fill="#F6F6F6" width="3.137" height="4.182"/>
	</g>
	<g>
		<rect x="240.197" y="143.032" fill="#F6F6F6" width="3.137" height="4.182"/>
	</g>
	<g>
		<rect x="235.493" y="143.032" fill="#F6F6F6" width="3.136" height="4.182"/>
	</g>
	<g>
		<path fill="#F6F6F6" d="M255.881,78.741c1.064,0,1.975-0.81,2.078-1.891c0.298-3.094,2.869-5.427,5.981-5.427
			c0.428,0,0.871,0.05,1.317,0.15c1.09,0.243,2.178-0.413,2.473-1.488c1.301-4.752,5.653-8.071,10.584-8.071
			c4.52,0,8.641,2.837,10.254,7.06c0.246,0.643,0.792,1.123,1.461,1.285c0.668,0.162,1.373-0.015,1.887-0.473
			c1.154-1.032,2.635-1.601,4.17-1.601c1.993,0,3.824,0.923,5.025,2.533c0.604,0.809,1.697,1.072,2.601,0.625
			c0.73-0.361,1.507-0.543,2.306-0.543c2.883,0,5.227,2.345,5.227,5.227c0,0.107-0.009,0.213-0.017,0.319l-0.004,0.053
			c-0.042,0.58,0.159,1.15,0.555,1.575c0.396,0.425,0.95,0.667,1.531,0.667h21.806c1.154,0,2.09-0.937,2.09-2.091
			c0-1.154-0.936-2.09-2.09-2.09h-19.819c-0.749-4.445-4.624-7.841-9.278-7.841c-0.896,0-1.772,0.126-2.621,0.375
			c-1.941-1.916-4.531-2.988-7.311-2.988c-1.661,0-3.283,0.397-4.743,1.144c-2.701-4.519-7.661-7.417-13.028-7.417
			c-6.192,0-11.725,3.792-14.027,9.415c-5.434-0.194-9.975,3.838-10.49,9.202c-0.11,1.15,0.732,2.171,1.882,2.282
			C255.746,78.738,255.814,78.741,255.881,78.741z"/>
	</g>
	<g>
		<path fill="#F6F6F6" d="M343.422,78.741h12.545c1.154,0,2.092-0.937,2.092-2.091c0-1.154-0.938-2.09-2.092-2.09h-12.545
			c-1.154,0-2.09,0.936-2.09,2.09C341.332,77.804,342.268,78.741,343.422,78.741z"/>
	</g>
	<g>
		<rect x="210.403" y="113.239" fill="#FFFFFF" width="11.499" height="94.609"/>
	</g>
	<g>
		<path fill="#00DEA7" d="M175.383,110.625h48.611v99.312h-48.611V110.625z M219.812,114.807h-40.248v90.949h40.248V114.807z"/>
	</g>
	<g>
		<rect x="208.312" y="112.716" fill="#00DEA7" width="4.182" height="95.131"/>
	</g>
	<g>
		<rect x="213.54" y="117.943" fill="#F6F6F6" width="5.227" height="4.181"/>
	</g>
	<g>
		<rect x="213.54" y="126.307" fill="#F6F6F6" width="5.227" height="4.181"/>
	</g>
	<g>
		<rect x="213.54" y="134.669" fill="#F6F6F6" width="5.227" height="4.182"/>
	</g>
	<g>
		<rect x="213.54" y="143.032" fill="#F6F6F6" width="5.227" height="4.182"/>
	</g>
	<g>
		<rect x="213.54" y="151.396" fill="#F6F6F6" width="5.227" height="4.182"/>
	</g>
	<g>
		<rect x="213.54" y="159.759" fill="#F6F6F6" width="5.227" height="4.182"/>
	</g>
	<g>
		<rect x="213.54" y="168.122" fill="#F6F6F6" width="5.227" height="4.181"/>
	</g>
	<g>
		<rect x="213.54" y="176.485" fill="#F6F6F6" width="5.227" height="4.181"/>
	</g>
	<g>
		<rect x="213.54" y="184.849" fill="#F6F6F6" width="5.227" height="4.181"/>
	</g>
	<g>
		<rect x="213.54" y="193.212" fill="#726F6F" width="5.227" height="4.181"/>
	</g>
	<g>
		<rect x="182.178" y="117.943" fill="#F6F6F6" width="20.386" height="4.181"/>
	</g>
	<g>
		<rect x="182.178" y="126.307" fill="#F6F6F6" width="20.386" height="4.181"/>
	</g>
	<g>
		<rect x="182.178" y="134.669" fill="#F6F6F6" width="20.386" height="4.182"/>
	</g>
	<g>
		<rect x="182.178" y="143.032" fill="#F6F6F6" width="20.386" height="4.182"/>
	</g>
	<g>
		<rect x="182.178" y="151.396" fill="#F6F6F6" width="20.386" height="4.182"/>
	</g>
	<g>
		<rect x="182.178" y="159.759" fill="#F6F6F6" width="20.386" height="4.182"/>
	</g>
	<g>
		<rect x="182.178" y="168.122" fill="#F6F6F6" width="20.386" height="4.181"/>
	</g>
	<g>
		<rect x="182.178" y="176.485" fill="#F6F6F6" width="20.386" height="4.181"/>
	</g>
	<g>
		<rect x="182.178" y="184.849" fill="#F6F6F6" width="20.386" height="4.181"/>
	</g>
	<g>
		<rect x="182.178" y="193.212" fill="#F6F6F6" width="20.386" height="4.181"/>
	</g>
	<g>
		<path fill="#00DEA7" d="M178.519,100.694h33.453v14.113h-33.453V100.694z M207.79,104.875H182.7v5.75h25.09V104.875z"/>
	</g>
	<g>
		<rect x="191.586" y="106.966" fill="#F6F6F6" width="4.183" height="2.091"/>
	</g>
	<g>
		<rect x="184.792" y="106.966" fill="#F6F6F6" width="4.181" height="2.091"/>
	</g>
	<g>
		<rect x="185.313" y="61.491" fill="#E5E5E5" width="4.705" height="2.091"/>
	</g>
	<g>
		<rect x="162.315" y="61.491" fill="#F6F6F6" width="18.817" height="2.091"/>
	</g>
	<g>
		<rect x="185.313" y="67.764" fill="#E5E5E5" width="4.705" height="2.09"/>
	</g>
	<g>
		<rect x="162.315" y="67.764" fill="#F6F6F6" width="18.817" height="2.09"/>
	</g>
	<g>
		<rect x="185.313" y="74.036" fill="#E5E5E5" width="4.705" height="2.091"/>
	</g>
	<g>
		<rect x="162.315" y="74.036" fill="#F6F6F6" width="18.817" height="2.091"/>
	</g>
	<g>
		<rect x="185.313" y="80.309" fill="#E5E5E5" width="4.705" height="2.091"/>
	</g>
	<g>
		<rect x="162.315" y="80.309" fill="#F6F6F6" width="18.817" height="2.091"/>
	</g>
	<g>
		<rect x="185.313" y="86.581" fill="#E5E5E5" width="4.705" height="2.091"/>
	</g>
	<g>
		<rect x="162.315" y="86.581" fill="#F6F6F6" width="18.817" height="2.091"/>
	</g>
	<g>
		<rect x="185.313" y="92.854" fill="#E5E5E5" width="4.705" height="2.09"/>
	</g>
	<g>
		<rect x="162.315" y="92.854" fill="#F6F6F6" width="18.817" height="2.09"/>
	</g>
	<g>
		<rect x="183.223" y="43.197" fill="#00DEA7" width="4.183" height="11.5"/>
	</g>
	<g>
		<rect x="166.497" y="49.992" fill="#E5E5E5" width="7.84" height="6.273"/>
		<path fill="#00DEA7" d="M164.406,47.901h12.022v10.454h-12.022V47.901z M172.246,52.083h-3.659v2.09h3.659V52.083z"/>
	</g>
	<g>
		<rect x="258.492" y="85.536" fill="#F6F6F6" width="2.09" height="31.362"/>
	</g>
	<g>
		<rect x="129.907" y="89.717" fill="#FFFFFF" width="36.066" height="118.13"/>
	</g>
	<g>
		<rect x="155.52" y="90.763" fill="#F6F6F6" width="9.409" height="116.039"/>
	</g>
	<g>
		<rect x="156.043" y="94.422" fill="#F6F6F6" width="8.363" height="4.181"/>
	</g>
	<g>
		<rect x="131.999" y="94.422" fill="#F6F6F6" width="20.385" height="4.181"/>
	</g>
	<g>
		<rect x="156.043" y="101.739" fill="#F6F6F6" width="8.363" height="4.182"/>
	</g>
	<g>
		<rect x="131.999" y="101.739" fill="#F6F6F6" width="20.385" height="4.182"/>
	</g>
	<g>
		<rect x="156.043" y="109.057" fill="#F6F6F6" width="8.363" height="4.182"/>
	</g>
	<g>
		<rect x="131.999" y="109.057" fill="#F6F6F6" width="20.385" height="4.182"/>
	</g>
	<g>
		<rect x="156.043" y="116.374" fill="#F6F6F6" width="8.363" height="4.183"/>
	</g>
	<g>
		<rect x="131.999" y="116.374" fill="#F6F6F6" width="20.385" height="4.183"/>
	</g>
	<g>
		<rect x="156.043" y="123.692" fill="#F6F6F6" width="8.363" height="4.182"/>
	</g>
	<g>
		<rect x="131.999" y="123.692" fill="#F6F6F6" width="20.385" height="4.182"/>
	</g>
	<g>
		<rect x="156.043" y="131.01" fill="#F6F6F6" width="8.363" height="4.183"/>
	</g>
	<g>
		<rect x="131.999" y="131.01" fill="#F6F6F6" width="20.385" height="4.183"/>
	</g>
	<g>
		<rect x="156.043" y="138.328" fill="#F6F6F6" width="8.363" height="4.182"/>
	</g>
	<g>
		<rect x="131.999" y="138.328" fill="#F6F6F6" width="20.385" height="4.182"/>
	</g>
	<g>
		<rect x="156.043" y="145.646" fill="#F6F6F6" width="8.363" height="4.181"/>
	</g>
	<g>
		<rect x="131.999" y="145.646" fill="#F6F6F6" width="20.385" height="4.181"/>
	</g>
	<g>
		<rect x="156.043" y="152.964" fill="#F6F6F6" width="8.363" height="4.182"/>
	</g>
	<g>
		<rect x="131.999" y="152.964" fill="#F6F6F6" width="20.385" height="4.182"/>
	</g>
	<g>
		<rect x="156.043" y="160.282" fill="#F6F6F6" width="8.363" height="4.181"/>
	</g>
	<g>
		<rect x="131.999" y="160.282" fill="#F6F6F6" width="20.385" height="4.181"/>
	</g>
	<g>
		<rect x="156.043" y="167.6" fill="#F6F6F6" width="8.363" height="4.182"/>
	</g>
	<g>
		<rect x="131.999" y="167.6" fill="#F6F6F6" width="20.385" height="4.182"/>
	</g>
	<g>
		<rect x="156.043" y="174.918" fill="#F6F6F6" width="8.363" height="4.181"/>
	</g>
	<g>
		<rect x="131.999" y="174.918" fill="#F6F6F6" width="20.385" height="4.181"/>
	</g>
	<g>
		<rect x="156.043" y="182.235" fill="#F6F6F6" width="8.363" height="4.181"/>
	</g>
	<g>
		<rect x="131.999" y="182.235" fill="#F6F6F6" width="20.385" height="4.181"/>
	</g>
	<g>
		<rect x="156.043" y="189.553" fill="#F6F6F6" width="8.363" height="4.182"/>
	</g>
	<g>
		<rect x="131.999" y="189.553" fill="#F6F6F6" width="20.385" height="4.182"/>
	</g>
	<g>
		<rect x="156.043" y="196.871" fill="#878787" width="8.363" height="4.181"/>
	</g>
	<g>
		<rect x="131.999" y="196.871" fill="#CCCCCC" width="20.385" height="4.181"/>
	</g>
	<g>
		<path fill="#00DEA7" d="M127.817,87.626h40.248v122.311h-40.248V87.626z M163.883,91.808h-31.884v113.948h31.884V91.808z"/>
	</g>
	<g>
		<rect x="152.384" y="89.717" fill="#00DEA7" width="4.182" height="117.607"/>
	</g>
	<g>
		<rect x="130.953" y="81.877" fill="#E0E0E0" width="21.953" height="7.84"/>
	</g>
	<g>
		<rect x="147.157" y="83.444" fill="#E5E5E5" width="4.182" height="5.228"/>
	</g>
	<g>
		<path fill="#00DEA7" d="M128.863,79.786h26.134v12.022h-26.134V79.786z M150.816,83.967h-17.772v3.659h17.772V83.967z"/>
	</g>
	<g>
		<rect x="144.021" y="82.922" fill="#00DEA7" width="4.182" height="5.75"/>
	</g>
	<g>
		<rect x="190.019" y="116.897" fill="#FFFFFF" width="4.181" height="84.678"/>
	</g>
	<g>
		<rect x="96.978" y="122.124" fill="#FFFFFF" width="32.408" height="85.724"/>
	</g>
	<g>
		<rect x="118.408" y="122.124" fill="#F6F6F6" width="10.978" height="85.724"/>
	</g>
	<g>
		<path fill="#00DEA7" d="M94.888,120.033h36.589v89.904H94.888V120.033z M127.294,124.216H99.068v81.54h28.226V124.216z"/>
	</g>
	<g>
		<rect x="102.205" y="105.921" fill="#FFFFFF" width="20.908" height="16.203"/>
	</g>
	<g>
		<rect x="115.272" y="105.921" fill="#F6F6F6" width="7.841" height="16.203"/>
	</g>
	<g>
		<path fill="#00DEA7" d="M100.114,103.83h25.09v20.386h-25.09V103.83z M121.021,108.012h-16.727v12.021h16.727V108.012z"/>
	</g>
	<g>
		<rect x="106.387" y="93.376" fill="#FFFFFF" width="12.544" height="12.545"/>
	</g>
	<g>
		<rect x="114.75" y="93.376" fill="#F6F6F6" width="4.181" height="12.545"/>
	</g>
	<g>
		<path fill="#00DEA7" d="M104.295,91.285h16.727v16.727h-16.727V91.285z M116.841,95.467h-8.363v8.363h8.363V95.467z"/>
	</g>
	<g>
		<rect x="113.182" y="106.966" fill="#00DEA7" width="4.182" height="14.113"/>
	</g>
	<g>
		<rect x="116.317" y="123.692" fill="#00DEA7" width="4.183" height="83.632"/>
	</g>
	<g>
		<rect x="111.091" y="79.264" fill="#00DEA7" width="2.091" height="12.021"/>
	</g>
	<g>
		<rect x="112.659" y="125.261" fill="#F6F6F6" width="2.091" height="78.404"/>
	</g>
	<g>
		<rect x="123.113" y="125.261" fill="#E5E5E5" width="2.091" height="78.404"/>
	</g>
	<g>
		<rect x="108.478" y="125.261" fill="#F6F6F6" width="2.09" height="78.404"/>
	</g>
	<g>
		<rect x="104.295" y="125.261" fill="#F6F6F6" width="2.092" height="78.404"/>
	</g>
	<g>
		<rect x="100.114" y="125.261" fill="#F6F6F6" width="2.091" height="78.404"/>
	</g>
	<g>
		<rect x="109.523" y="108.535" fill="#F6F6F6" width="2.09" height="10.455"/>
	</g>
	<g>
		<rect x="105.341" y="108.535" fill="#F6F6F6" width="2.091" height="10.455"/>
	</g>
	<g>
		<rect x="109.523" y="95.99" fill="#F6F6F6" width="2.09" height="7.317"/>
	</g>
	<g>
		<rect x="64.048" y="133.624" fill="#FFFFFF" width="40.247" height="74.224"/>
	</g>
	<g>
		<rect x="91.229" y="133.624" fill="#F6F6F6" width="13.066" height="74.224"/>
	</g>
	<g>
		<path fill="#00DEA7" d="M61.957,131.533h44.43v78.404h-44.43V131.533z M102.205,135.715H66.139v70.041h36.066V135.715z"/>
	</g>
	<g>
		<rect x="89.138" y="133.624" fill="#00DEA7" width="4.181" height="74.224"/>
	</g>
	<g>
		<rect x="71.365" y="118.466" fill="#FFFFFF" width="25.612" height="15.158"/>
		<path fill="#68615F" d="M69.274,116.374h29.794v19.341H69.274V116.374z M94.888,120.557H73.456v10.977h21.432V120.557z"/>
	</g>
	<g>
		<rect x="88.614" y="118.466" fill="#F6F6F6" width="8.363" height="15.158"/>
	</g>
	<g>
		<path fill="#00DEA7" d="M69.274,116.374h29.794v19.341H69.274V116.374z M94.888,120.557H73.456v10.977h21.432V120.557z"/>
	</g>
	<g>
		<rect x="86.524" y="118.466" fill="#00DEA7" width="4.181" height="15.158"/>
	</g>
	<g>
		<rect x="91.229" y="124.216" fill="#F6F6F6" width="3.136" height="4.181"/>
	</g>
	<g>
		<rect x="95.41" y="138.851" fill="#E5E5E5" width="4.181" height="4.182"/>
	</g>
	<g>
		<rect x="95.41" y="145.646" fill="#E5E5E5" width="4.181" height="4.181"/>
	</g>
	<g>
		<rect x="82.865" y="138.851" fill="#F6F6F6" width="4.182" height="4.182"/>
	</g>
	<g>
		<rect x="82.865" y="145.646" fill="#F6F6F6" width="4.182" height="4.181"/>
	</g>
	<g>
		<rect x="75.548" y="138.851" fill="#F6F6F6" width="4.181" height="4.182"/>
	</g>
	<g>
		<rect x="80.774" y="124.216" fill="#F6F6F6" width="4.181" height="4.181"/>
	</g>
	<g>
		<rect x="74.502" y="124.216" fill="#F6F6F6" width="4.182" height="4.181"/>
	</g>
	<g>
		<rect x="75.548" y="145.646" fill="#F6F6F6" width="4.181" height="4.181"/>
	</g>
	<g>
		<rect x="68.229" y="138.851" fill="#F6F6F6" width="4.182" height="4.182"/>
	</g>
	<g>
		<rect x="68.229" y="145.646" fill="#F6F6F6" width="4.182" height="4.181"/>
	</g>
	<g>
		<rect x="82.865" y="152.441" fill="#F6F6F6" width="4.182" height="4.182"/>
	</g>
	<g>
		<rect x="82.865" y="159.236" fill="#F6F6F6" width="4.182" height="4.182"/>
	</g>
	<g>
		<rect x="75.548" y="152.441" fill="#F6F6F6" width="4.181" height="4.182"/>
	</g>
	<g>
		<rect x="75.548" y="159.236" fill="#F6F6F6" width="4.181" height="4.182"/>
	</g>
	<g>
		<rect x="68.229" y="152.441" fill="#F6F6F6" width="4.182" height="4.182"/>
	</g>
	<g>
		<rect x="68.229" y="159.236" fill="#F6F6F6" width="4.182" height="4.182"/>
	</g>
	<g>
		<rect x="82.865" y="166.031" fill="#F6F6F6" width="4.182" height="4.182"/>
	</g>
	<g>
		<rect x="82.865" y="172.826" fill="#F6F6F6" width="4.182" height="4.182"/>
	</g>
	<g>
		<rect x="75.548" y="166.031" fill="#F6F6F6" width="4.181" height="4.182"/>
	</g>
	<g>
		<rect x="75.548" y="172.826" fill="#F6F6F6" width="4.181" height="4.182"/>
	</g>
	<g>
		<rect x="68.229" y="166.031" fill="#F6F6F6" width="4.182" height="4.182"/>
	</g>
	<g>
		<rect x="68.229" y="172.826" fill="#F6F6F6" width="4.182" height="4.182"/>
	</g>
	<g>
		<rect x="82.865" y="179.621" fill="#F6F6F6" width="4.182" height="4.182"/>
	</g>
	<g>
		<rect x="82.865" y="186.416" fill="#F6F6F6" width="4.182" height="4.183"/>
	</g>
	<g>
		<rect x="75.548" y="179.621" fill="#F6F6F6" width="4.181" height="4.182"/>
	</g>
	<g>
		<rect x="75.548" y="186.416" fill="#F6F6F6" width="4.181" height="4.183"/>
	</g>
	<g>
		<rect x="68.229" y="179.621" fill="#F6F6F6" width="4.182" height="4.182"/>
	</g>
	<g>
		<rect x="68.229" y="186.416" fill="#F6F6F6" width="4.182" height="4.183"/>
	</g>
	<g>
		<rect x="82.865" y="193.212" fill="#F6F6F6" width="4.182" height="4.181"/>
	</g>
	<g>
		<rect x="75.548" y="193.212" fill="#F6F6F6" width="4.181" height="4.181"/>
	</g>
	<g>
		<rect x="68.229" y="193.212" fill="#F6F6F6" width="4.182" height="4.181"/>
	</g>
	<g>
		<rect x="95.41" y="152.441" fill="#E5E5E5" width="4.181" height="4.182"/>
	</g>
	<g>
		<rect x="95.41" y="159.236" fill="#E5E5E5" width="4.181" height="4.182"/>
	</g>
	<g>
		<rect x="95.41" y="166.031" fill="#E5E5E5" width="4.181" height="4.182"/>
	</g>
	<g>
		<rect x="95.41" y="172.826" fill="#E5E5E5" width="4.181" height="4.182"/>
	</g>
	<g>
		<rect x="95.41" y="179.621" fill="#E5E5E5" width="4.181" height="4.182"/>
	</g>
	<g>
		<rect x="95.41" y="186.416" fill="#E5E5E5" width="4.181" height="4.183"/>
	</g>
	<g>
		<rect x="95.41" y="193.212" fill="#E5E5E5" width="4.181" height="4.181"/>
	</g>
	<g>
		<rect x="242.288" y="200.529" fill="#00DEA7" width="18.817" height="4.182"/>
	</g>
	<g>
		<rect x="76.592" y="113.761" fill="#C4C4C4" width="13.592" height="4.705"/>
		<path fill="#00DEA7" d="M74.502,111.67h17.771v8.886H74.502V111.67z M88.092,115.852h-9.408v0.522h9.408V115.852z"/>
	</g>
	<g>
		<rect x="265.287" y="200.529" fill="#00DEA7" width="8.363" height="4.182"/>
	</g>
	<g>
		<rect x="244.379" y="160.282" fill="#F6F6F6" width="15.158" height="4.181"/>
	</g>
	<g>
		<rect x="55.685" y="132.056" fill="#E5E5E5" width="4.182" height="71.087"/>
	</g>
	<g>
		<rect x="43.14" y="164.463" fill="#FFFFFF" width="26.135" height="43.385"/>
	</g>
	<g>
		<rect x="58.821" y="164.463" fill="#F6F6F6" width="10.453" height="43.385"/>
	</g>
	<g>
		<rect x="58.821" y="196.871" fill="#00DEA7" width="10.453" height="4.181"/>
	</g>
	<g>
		<rect x="43.14" y="196.871" fill="#F6F6F6" width="15.682" height="4.181"/>
	</g>
	<g>
		<path fill="#00DEA7" d="M41.049,162.372h30.316v47.565H41.049V162.372z M67.185,166.555H45.231v39.201h21.953V166.555z"/>
	</g>
	<g>
		<rect x="56.729" y="164.463" fill="#00DEA7" width="4.183" height="43.385"/>
	</g>
	<g>
		<rect x="46.275" y="169.168" fill="#F6F6F6" width="9.409" height="4.181"/>
	</g>
	<g>
		<rect x="46.275" y="175.962" fill="#F6F6F6" width="9.409" height="4.183"/>
	</g>
	<g>
		<rect x="46.275" y="182.758" fill="#F6F6F6" width="9.409" height="4.182"/>
	</g>
	<g>
		<rect x="46.275" y="189.553" fill="#F6F6F6" width="9.409" height="4.182"/>
	</g>
	<g>
		<path fill="#00DEA7" d="M356.76,209.938h16.726c1.155,0,2.091-0.936,2.091-2.09c0-1.155-0.936-2.092-2.091-2.092H356.76
			c-1.155,0-2.092,0.937-2.092,2.092C354.668,209.002,355.604,209.938,356.76,209.938z"/>
	</g>
	<g>
		<path fill="#00DEA7" d="M379.758,209.938h4.182c1.154,0,2.091-0.936,2.091-2.09c0-1.155-0.937-2.092-2.091-2.092h-4.182
			c-1.154,0-2.091,0.937-2.091,2.092C377.667,209.002,378.604,209.938,379.758,209.938z"/>
	</g>
	<g>
		<path fill="#00DEA7" d="M16.482,209.938h4.181c1.155,0,2.092-0.936,2.092-2.09c0-1.155-0.937-2.092-2.092-2.092h-4.181
			c-1.154,0-2.091,0.937-2.091,2.092C14.392,209.002,15.328,209.938,16.482,209.938z"/>
	</g>
	<g>
		<path fill="#00DEA7" d="M26.975,127.872c0.001,0,0.003,0,0.005,0c0.509-0.003,0.942-0.369,1.026-0.871
			c0.016-0.088,0.419-2.264,2.104-2.264c0.578,0,1.046-0.468,1.046-1.045s-0.468-1.045-1.046-1.045
			c-1.455,0-2.469,0.726-3.136,1.615c-0.667-0.89-1.681-1.615-3.137-1.615c-0.577,0-1.045,0.468-1.045,1.045
			s0.468,1.045,1.045,1.045c1.686,0,2.09,2.176,2.106,2.269C26.032,127.505,26.467,127.872,26.975,127.872z"/>
	</g>
	<g>
		<path fill="#00DEA7" d="M17.528,135.116c0.106,0,0.216-0.018,0.322-0.052c0.486-0.158,0.787-0.645,0.711-1.149
			c-0.012-0.088-0.3-2.281,1.304-2.803c0.548-0.178,0.85-0.768,0.671-1.316c-0.178-0.549-0.765-0.849-1.317-0.672
			c-1.385,0.45-2.124,1.452-2.484,2.505c-0.908-0.641-2.096-1.018-3.481-0.567c-0.549,0.179-0.85,0.768-0.671,1.317
			c0.179,0.549,0.764,0.851,1.317,0.671c1.624-0.529,2.689,1.481,2.7,1.503C16.783,134.906,17.146,135.116,17.528,135.116z"/>
	</g>
	<g>
		<path fill="#F6F6F6" d="M46.8,40.062c0.9,0,1.732-0.586,2.002-1.494c0.616-2.065,2.478-3.558,4.631-3.712
			c0.856-0.062,1.588-0.64,1.845-1.459c1.204-3.83,4.711-6.403,8.729-6.403c2.463,0,4.775,0.968,6.51,2.727
			c0.527,0.534,1.3,0.745,2.023,0.553c0.725-0.192,1.291-0.757,1.484-1.481c1.19-4.444,5.238-7.548,9.845-7.548
			c4.755,0,8.834,3.23,9.919,7.854c0.245,1.041,1.24,1.733,2.296,1.597c0.232-0.029,0.421-0.043,0.592-0.043
			c1.176,0,2.306,0.444,3.181,1.249c0.53,0.49,1.278,0.67,1.975,0.477c1.299-0.36,2.569-0.093,3.592,0.662
			c0.52,0.383,1.187,0.505,1.808,0.33s1.127-0.626,1.369-1.224c0.888-2.178,2.978-3.584,5.324-3.584c3.171,0,5.75,2.579,5.75,5.75
			c0,0.942-0.225,1.844-0.667,2.678c-0.346,0.648-0.324,1.429,0.054,2.058c0.378,0.628,1.058,1.014,1.792,1.014h15.548
			c1.154,0,2.091-0.937,2.091-2.091c0-1.155-0.937-2.091-2.091-2.091h-12.671c0.084-0.519,0.126-1.043,0.126-1.568
			c0-5.476-4.455-9.931-9.932-9.931c-3.274,0-6.258,1.583-8.092,4.173c-1.261-0.467-2.635-0.628-4.014-0.435
			c-1.311-0.935-2.843-1.495-4.448-1.62c-2.042-5.633-7.374-9.436-13.501-9.436c-5.453,0-10.353,3.086-12.777,7.786
			c-2.103-1.326-4.537-2.036-7.085-2.036c-5.403,0-10.173,3.195-12.255,8.077c-3.273,0.74-5.98,3.212-6.955,6.483
			c-0.331,1.106,0.299,2.271,1.405,2.601C46.4,40.033,46.602,40.062,46.8,40.062z"/>
	</g>
	<g>
		<path fill="#F6F6F6" d="M144.762,40.061h12.546c1.154,0,2.091-0.937,2.091-2.091c0-1.155-0.937-2.091-2.091-2.091h-12.546
			c-1.154,0-2.09,0.936-2.09,2.091C142.672,39.125,143.607,40.061,144.762,40.061z"/>
	</g>
	<g>
		<path fill="#F6F6F6" d="M174.031,207.848h-52.486c0.6-1.695,1.901-3.058,3.558-3.737c-0.041-0.326-0.064-0.659-0.064-0.997
			c0-4.357,3.532-7.89,7.889-7.89c3.434,0,6.354,2.193,7.438,5.257c0.918-0.658,2.041-1.049,3.257-1.049
			c0.156,0,0.31,0.012,0.461,0.023c1.335-2.118,3.688-3.53,6.377-3.53c0.235,0,0.467,0.015,0.695,0.035
			c1.695-2.556,4.599-4.243,7.896-4.243c5.229,0,9.468,4.239,9.468,9.468c0,0.604-0.059,1.191-0.167,1.763
			C171.201,203.034,173.543,205.118,174.031,207.848z"/>
		<path fill="#00DEA7" d="M119.838,209.054c-0.393-0.554-0.491-1.266-0.265-1.905c0.627-1.768,1.823-3.264,3.376-4.263
			c0.122-5.398,4.551-9.753,9.978-9.753c3.431,0,6.571,1.767,8.382,4.564c0.553-0.176,1.125-0.287,1.707-0.333
			c1.75-2.145,4.319-3.43,7.11-3.524c2.188-2.658,5.443-4.214,8.925-4.214c6.374,0,11.559,5.186,11.559,11.559
			c0,0.018,0,0.034,0,0.051c2.78,0.894,4.949,3.27,5.479,6.244c0.109,0.609-0.058,1.235-0.454,1.71
			c-0.398,0.475-0.985,0.748-1.604,0.748h-52.486C120.865,209.938,120.229,209.608,119.838,209.054z M168.288,205.037
			c-0.611-0.018-1.184-0.304-1.565-0.78c-0.384-0.477-0.539-1.096-0.425-1.696c0.086-0.459,0.129-0.921,0.129-1.376
			c0-4.066-3.309-7.377-7.376-7.377c-2.479,0-4.779,1.236-6.152,3.308c-0.426,0.643-1.168,1-1.936,0.927
			c-0.165-0.016-0.333-0.026-0.503-0.026c-1.878,0-3.601,0.954-4.607,2.554c-0.416,0.66-1.163,1.037-1.94,0.969
			c-0.81-0.066-1.649,0.154-2.33,0.642c-0.535,0.383-1.219,0.492-1.845,0.294c-0.627-0.196-1.124-0.677-1.343-1.296
			c-0.818-2.311-3.016-3.863-5.468-3.863c-3.196,0-5.799,2.602-5.799,5.799c0,0.237,0.017,0.478,0.05,0.735
			c0.093,0.743-0.217,1.463-0.785,1.907h44.019C169.804,205.323,169.071,205.062,168.288,205.037z"/>
	</g>
	<g>
		<path fill="#F6F6F6" d="M203.582,207.848h-4.652c-1.867-0.876-3.162-2.768-3.162-4.966c0-3.031,2.457-5.489,5.487-5.489
			c0.125,0,0.248,0.011,0.371,0.02c1.502-4.271,5.561-7.337,10.345-7.337c6.062,0,10.977,4.915,10.977,10.977
			c0,2.568-0.889,4.926-2.366,6.796H203.582z"/>
		<path fill="#00DEA7" d="M198.042,209.74c-2.651-1.244-4.364-3.938-4.364-6.858c0-3.825,2.848-6.998,6.535-7.508
			c2.159-4.473,6.719-7.39,11.759-7.39c7.206,0,13.067,5.862,13.067,13.067c0,2.962-0.975,5.76-2.817,8.092
			c-0.396,0.501-1.001,0.794-1.64,0.794H198.93C198.623,209.938,198.32,209.87,198.042,209.74z M220.857,201.052
			c0-4.899-3.986-8.886-8.886-8.886c-3.758,0-7.122,2.387-8.374,5.939c-0.311,0.887-1.18,1.454-2.11,1.393l-0.073-0.005
			c-0.053-0.004-0.104-0.009-0.158-0.009c-1.873,0-3.397,1.523-3.397,3.397c0,1.17,0.615,2.258,1.597,2.874h20.048
			C220.392,204.346,220.857,202.737,220.857,201.052z"/>
	</g>
	<g>
		<g>
			<rect x="31.118" y="187.984" fill="#00DEA7" width="4.181" height="17.771"/>
		</g>
		<g>
			<path fill="#F6F6F6" d="M22.755,182.496c0-2.55,1.922-4.647,4.396-4.931c-0.136-0.512-0.215-1.048-0.215-1.604
				c0-3.464,2.809-6.272,6.272-6.272s6.272,2.809,6.272,6.272c0,0.987-0.234,1.917-0.641,2.748c2.534,1.151,4.299,3.696,4.299,6.661
				c0,3.297-2.18,6.083-5.177,6.998c-1.23,2.066-3.48,3.456-6.061,3.456c-3.898,0-7.057-3.159-7.057-7.057
				c0-0.707,0.106-1.388,0.3-2.031C23.714,185.865,22.755,184.294,22.755,182.496z"/>
			<path fill="#00DEA7" d="M22.755,188.769c0-0.396,0.025-0.792,0.077-1.186c-1.378-1.314-2.169-3.13-2.169-5.087
				c0-2.851,1.697-5.339,4.183-6.445c0-0.028,0-0.059,0-0.089c0-4.61,3.751-8.362,8.363-8.362c4.611,0,8.363,3.752,8.363,8.362
				c0,0.617-0.068,1.225-0.201,1.819c2.391,1.75,3.86,4.562,3.86,7.59c0,3.898-2.345,7.316-5.911,8.735
				c-1.708,2.368-4.483,3.81-7.418,3.81C26.858,197.916,22.755,193.812,22.755,188.769z M29.026,175.962
				c0,0.346,0.049,0.705,0.146,1.069c0.155,0.588,0.048,1.212-0.295,1.713c-0.343,0.502-0.886,0.829-1.488,0.899
				c-1.45,0.165-2.543,1.392-2.543,2.853c0,1.009,0.519,1.926,1.387,2.454c0.813,0.495,1.189,1.476,0.916,2.388
				c-0.141,0.468-0.212,0.949-0.212,1.431c0,2.738,2.228,4.966,4.966,4.966c1.763,0,3.356-0.91,4.264-2.435
				c0.267-0.446,0.689-0.778,1.186-0.931c2.211-0.676,3.697-2.685,3.697-4.998c0-2.042-1.205-3.909-3.072-4.758
				c-0.516-0.232-0.913-0.664-1.104-1.195c-0.191-0.532-0.159-1.119,0.089-1.627c0.284-0.58,0.428-1.196,0.428-1.829
				c0-2.305-1.876-4.181-4.181-4.181C30.903,171.781,29.026,173.657,29.026,175.962z"/>
		</g>
	</g>
</g>
</svg>
