<?xml version="1.0" encoding="utf-8"?>
<!-- Generator: Adobe Illustrator 16.0.0, SVG Export Plug-In . SVG Version: 6.00 Build 0)  -->
<!DOCTYPE svg PUBLIC "-//W3C//DTD SVG 1.1//EN" "http://www.w3.org/Graphics/SVG/1.1/DTD/svg11.dtd">
<svg version="1.1" id="Layer_1" xmlns="http://www.w3.org/2000/svg" xmlns:xlink="http://www.w3.org/1999/xlink" x="0px" y="0px"
	 width="400px" height="230px" viewBox="0 0 400 230" enable-background="new 0 0 400 230" xml:space="preserve">
<g>
	<g>
		<path fill="#00DEA7" d="M371.624,209.938H48.074c-1.155,0-2.091-0.936-2.091-2.09c0-1.155,0.936-2.092,2.091-2.092h323.55
			c1.155,0,2.091,0.937,2.091,2.092C373.715,209.002,372.779,209.938,371.624,209.938z"/>
	</g>
	<g>
		<rect x="325.627" y="125.261" fill="#F6F6F6" width="22.998" height="82.587"/>
	</g>
	<g>
		<path fill="#00DEA7" d="M350.716,209.938h-27.18V123.17h27.18V209.938z M327.718,205.756h18.817v-78.404h-18.817V205.756z"/>
	</g>
	<g>
		<polygon fill="#F6F6F6" points="316.219,207.324 301.583,207.324 301.583,100.171 310.469,100.171 310.469,107.489 
			316.219,107.489 		"/>
		<path fill="#00DEA7" d="M318.31,209.415h-18.817V98.081h13.067v7.318h5.75V209.415z M303.673,205.234h10.454V109.58h-5.75v-7.318
			h-4.704V205.234z"/>
	</g>
	<g>
		<rect x="214.814" y="56.788" fill="#FFFFFF" width="22.999" height="151.06"/>
	</g>
	<g>
		<rect x="206.975" y="56.788" fill="#F6F6F6" width="7.84" height="148.447"/>
	</g>
	<g>
		<rect x="208.542" y="99.125" fill="#E5E5E5" width="4.705" height="2.091"/>
	</g>
	<g>
		<rect x="217.428" y="99.125" fill="#F6F6F6" width="18.817" height="2.091"/>
	</g>
	<g>
		<rect x="208.542" y="105.398" fill="#726F6F" width="4.705" height="2.09"/>
	</g>
	<g>
		<rect x="217.428" y="105.398" fill="#F6F6F6" width="18.817" height="2.09"/>
	</g>
	<g>
		<rect x="208.542" y="111.67" fill="#726F6F" width="4.705" height="2.091"/>
	</g>
	<g>
		<rect x="217.428" y="111.67" fill="#F6F6F6" width="18.817" height="2.091"/>
	</g>
	<g>
		<rect x="208.542" y="117.943" fill="#726F6F" width="4.705" height="2.09"/>
	</g>
	<g>
		<rect x="217.428" y="117.943" fill="#F6F6F6" width="18.817" height="2.09"/>
	</g>
	<g>
		<rect x="208.542" y="124.216" fill="#726F6F" width="4.705" height="2.091"/>
	</g>
	<g>
		<rect x="217.428" y="124.216" fill="#F6F6F6" width="18.817" height="2.091"/>
	</g>
	<g>
		<rect x="208.542" y="130.487" fill="#726F6F" width="4.705" height="2.092"/>
	</g>
	<g>
		<rect x="217.428" y="130.487" fill="#F6F6F6" width="18.817" height="2.092"/>
	</g>
	<g>
		<rect x="208.542" y="136.76" fill="#726F6F" width="4.705" height="2.091"/>
	</g>
	<g>
		<rect x="217.428" y="136.76" fill="#F6F6F6" width="18.817" height="2.091"/>
	</g>
	<g>
		<rect x="208.542" y="143.032" fill="#726F6F" width="4.705" height="2.091"/>
	</g>
	<g>
		<rect x="217.428" y="143.032" fill="#F6F6F6" width="18.817" height="2.091"/>
	</g>
	<g>
		<rect x="208.542" y="149.305" fill="#726F6F" width="4.705" height="2.091"/>
	</g>
	<g>
		<rect x="217.428" y="149.305" fill="#F6F6F6" width="18.817" height="2.091"/>
	</g>
	<g>
		<rect x="208.542" y="155.577" fill="#726F6F" width="4.705" height="2.091"/>
	</g>
	<g>
		<rect x="217.428" y="155.577" fill="#F6F6F6" width="18.817" height="2.091"/>
	</g>
	<g>
		<rect x="208.542" y="161.85" fill="#726F6F" width="4.705" height="2.091"/>
	</g>
	<g>
		<rect x="217.428" y="161.85" fill="#F6F6F6" width="18.817" height="2.091"/>
	</g>
	<g>
		<rect x="208.542" y="168.122" fill="#726F6F" width="4.705" height="2.091"/>
	</g>
	<g>
		<rect x="217.428" y="168.122" fill="#F6F6F6" width="18.817" height="2.091"/>
	</g>
	<g>
		<rect x="208.542" y="174.395" fill="#726F6F" width="4.705" height="2.091"/>
	</g>
	<g>
		<rect x="217.428" y="174.395" fill="#F6F6F6" width="18.817" height="2.091"/>
	</g>
	<g>
		<rect x="208.542" y="180.666" fill="#726F6F" width="4.705" height="2.092"/>
	</g>
	<g>
		<rect x="217.428" y="180.666" fill="#F6F6F6" width="18.817" height="2.092"/>
	</g>
	<g>
		<rect x="208.542" y="186.939" fill="#726F6F" width="4.705" height="2.09"/>
	</g>
	<g>
		<rect x="217.428" y="186.939" fill="#F6F6F6" width="18.817" height="2.09"/>
	</g>
	<g>
		<rect x="208.542" y="193.212" fill="#726F6F" width="4.705" height="2.09"/>
	</g>
	<g>
		<rect x="217.428" y="193.212" fill="#F6F6F6" width="18.817" height="2.09"/>
	</g>
	<g>
		<rect x="208.542" y="199.484" fill="#726F6F" width="4.705" height="2.091"/>
	</g>
	<g>
		<rect x="217.428" y="199.484" fill="#F6F6F6" width="18.817" height="2.091"/>
	</g>
	<g>
		<rect x="213.247" y="56.265" fill="#00DEA7" width="4.181" height="151.583"/>
	</g>
	<g>
		<path fill="#00DEA7" d="M240.427,209.938h-36.065V54.173h36.065V209.938z M208.542,205.756h27.703V58.355h-27.703V205.756z"/>
	</g>
	<g>
		<rect x="198.611" y="102.785" fill="#FFFFFF" width="18.294" height="9.932"/>
	</g>
	<g>
		<rect x="176.658" y="112.716" fill="#FFFFFF" width="44.429" height="95.131"/>
	</g>
	<g>
		<g>
			<rect x="160.977" y="45.81" fill="#FFFFFF" width="18.817" height="162.038"/>
			<path fill="#00DEA7" d="M181.884,209.938h-22.999V43.72h22.999V209.938z M163.067,205.756h14.635V47.901h-14.635V205.756z"/>
		</g>
		<g>
			<rect x="173.521" y="49.992" fill="#F6F6F6" width="2.091" height="153.673"/>
		</g>
		<g>
			<rect x="169.34" y="49.992" fill="#F6F6F6" width="2.091" height="153.673"/>
		</g>
		<g>
			<rect x="165.158" y="49.992" fill="#F6F6F6" width="2.091" height="153.673"/>
		</g>
	</g>
	<g>
		<rect x="136.41" y="83.444" fill="#FFFFFF" width="30.316" height="124.403"/>
		<path fill="#00DEA7" d="M168.817,209.938h-34.498V81.354h34.498V209.938z M138.5,205.756h26.135V85.536H138.5V205.756z"/>
	</g>
	<g>
		<rect x="123.342" y="118.989" fill="#FFFFFF" width="16.726" height="88.858"/>
	</g>
	<g>
		<path fill="#00DEA7" d="M142.16,209.938h-20.908v-93.04h20.908V209.938z M125.433,205.756h12.545v-84.677h-12.545V205.756z"/>
	</g>
	<g>
		<rect x="96.162" y="114.807" fill="#FFFFFF" width="29.271" height="93.041"/>
	</g>
	<g>
		<rect x="95.639" y="114.807" fill="#F6F6F6" width="8.886" height="92.518"/>
	</g>
	<g>
		<path fill="#00DEA7" d="M127.524,209.938H94.071v-97.221h33.453V209.938z M98.252,205.756h25.09v-88.858h-25.09V205.756z"/>
	</g>
	<g>
		<rect x="77.868" y="156.1" fill="#FFFFFF" width="21.431" height="51.748"/>
	</g>
	<g>
		<rect x="79.436" y="158.191" fill="#F6F6F6" width="4.182" height="47.564"/>
	</g>
	<g>
		<path fill="#00DEA7" d="M101.389,209.938H75.776v-55.929h25.613V209.938z M79.958,205.756h17.25v-47.564h-17.25V205.756z"/>
	</g>
	<g>
		<rect x="83.094" y="156.1" fill="#00DEA7" width="4.182" height="51.748"/>
	</g>
	<g>
		<rect x="87.276" y="162.372" fill="#F6F6F6" width="9.932" height="2.091"/>
	</g>
	<g>
		<rect x="88.844" y="158.191" fill="#F6F6F6" width="2.091" height="4.181"/>
	</g>
	<g>
		<rect x="93.549" y="158.191" fill="#F6F6F6" width="2.09" height="4.181"/>
	</g>
	<g>
		<rect x="88.844" y="165.509" fill="#F6F6F6" width="2.091" height="39.202"/>
	</g>
	<g>
		<rect x="93.549" y="165.509" fill="#F6F6F6" width="2.09" height="39.202"/>
	</g>
	<g>
		<rect x="102.434" y="114.807" fill="#00DEA7" width="4.182" height="93.041"/>
	</g>
	<g>
		<rect x="145.818" y="150.873" fill="#F6F6F6" width="3.136" height="4.182"/>
	</g>
	<g>
		<rect x="150.522" y="150.873" fill="#F6F6F6" width="3.137" height="4.182"/>
	</g>
	<g>
		<rect x="155.227" y="150.873" fill="#F6F6F6" width="3.136" height="4.182"/>
	</g>
	<g>
		<rect x="159.931" y="150.873" fill="#F6F6F6" width="3.136" height="4.182"/>
	</g>
	<g>
		<rect x="159.931" y="158.713" fill="#F6F6F6" width="3.136" height="4.183"/>
	</g>
	<g>
		<rect x="159.931" y="166.555" fill="#F6F6F6" width="3.136" height="4.181"/>
	</g>
	<g>
		<rect x="159.931" y="174.395" fill="#F6F6F6" width="3.136" height="4.182"/>
	</g>
	<g>
		<rect x="159.931" y="182.235" fill="#F6F6F6" width="3.136" height="4.181"/>
	</g>
	<g>
		<rect x="159.931" y="190.075" fill="#F6F6F6" width="3.136" height="4.183"/>
	</g>
	<g>
		<rect x="159.931" y="197.916" fill="#F6F6F6" width="3.136" height="4.182"/>
	</g>
	<g>
		<rect x="106.616" y="121.603" fill="#F6F6F6" width="16.727" height="4.181"/>
	</g>
	<g>
		<rect x="108.707" y="116.897" fill="#F6F6F6" width="4.181" height="5.75"/>
	</g>
	<g>
		<rect x="117.07" y="116.897" fill="#F6F6F6" width="4.182" height="5.75"/>
	</g>
	<g>
		<rect x="108.707" y="125.261" fill="#F6F6F6" width="4.181" height="79.45"/>
	</g>
	<g>
		<rect x="117.07" y="125.261" fill="#F6F6F6" width="4.182" height="79.45"/>
	</g>
	<g>
		<rect x="140.068" y="85.536" fill="#00DEA7" width="4.182" height="120.22"/>
	</g>
	<g>
		<rect x="102.434" y="106.966" fill="#E0E0E0" width="7.841" height="6.795"/>
	</g>
	<g>
		<path fill="#00DEA7" d="M112.366,115.852h-12.022v-10.977h12.022V115.852z M104.525,111.67h3.659v-2.613h-3.659V111.67z"/>
	</g>
	<g>
		<rect x="122.82" y="154.009" fill="#FFFFFF" width="35.543" height="53.839"/>
	</g>
	<g>
		<rect x="122.82" y="154.009" fill="#F6F6F6" width="12.022" height="53.315"/>
	</g>
	<g>
		<path fill="#00DEA7" d="M160.454,209.938h-39.726v-58.019h39.726V209.938z M124.91,205.756h31.362V156.1H124.91V205.756z"/>
	</g>
	<g>
		<rect x="133.273" y="154.009" fill="#00DEA7" width="4.182" height="53.839"/>
	</g>
	<g>
		<rect x="139.023" y="168.122" fill="#F6F6F6" width="15.158" height="4.181"/>
	</g>
	<g>
		<rect x="139.023" y="175.962" fill="#F6F6F6" width="15.158" height="4.183"/>
	</g>
	<g>
		<rect x="139.023" y="183.803" fill="#F6F6F6" width="15.158" height="4.182"/>
	</g>
	<g>
		<rect x="139.023" y="191.644" fill="#F6F6F6" width="15.158" height="4.182"/>
	</g>
	<g>
		<rect x="128.569" y="123.17" fill="#F6F6F6" width="2.091" height="28.749"/>
	</g>
	<g>
		<rect x="131.705" y="123.17" fill="#F6F6F6" width="2.091" height="28.749"/>
	</g>
	<g>
		<rect x="134.842" y="123.17" fill="#F6F6F6" width="2.091" height="28.749"/>
	</g>
	<g>
		<path fill="#F6F6F6" d="M56.46,207.848h35.771c0.828-1.187,1.318-2.626,1.318-4.183c0-4.042-3.277-7.317-7.318-7.317
			c-2.54,0-4.775,1.294-6.087,3.258c-1.133-0.735-2.48-1.167-3.931-1.167c-0.199,0-0.394,0.014-0.588,0.029
			c-1.386-2.212-3.839-3.688-6.643-3.688c-4.33,0-7.84,3.511-7.84,7.841c0,0.033,0.004,0.065,0.005,0.1
			C58.635,203.179,56.693,205.265,56.46,207.848z"/>
		<path fill="#00DEA7" d="M92.231,209.938H56.46c-0.587,0-1.147-0.247-1.543-0.681c-0.396-0.433-0.592-1.012-0.539-1.598
			c0.264-2.922,2.15-5.414,4.783-6.518c0.716-4.777,4.848-8.453,9.821-8.453c3.026,0,5.825,1.354,7.702,3.671
			c1.005,0.051,1.989,0.265,2.92,0.629c1.745-1.735,4.115-2.73,6.627-2.73c5.188,0,9.408,4.22,9.408,9.407
			c0,1.932-0.585,3.792-1.694,5.379C93.555,209.604,92.915,209.938,92.231,209.938z M59.63,205.756h31.39
			c0.289-0.655,0.438-1.363,0.438-2.091c0-2.882-2.345-5.227-5.227-5.227c-1.749,0-3.375,0.87-4.349,2.329
			c-0.636,0.95-1.919,1.214-2.877,0.592c-0.956-0.621-2.106-0.896-3.214-0.807c-0.78,0.058-1.524-0.314-1.938-0.975
			c-1.061-1.696-2.882-2.707-4.87-2.707c-3.155,0-5.724,2.554-5.749,5.702c0.002,0.041,0.004,0.089,0.004,0.113
			c0.016,1.021-0.709,1.905-1.714,2.088C60.791,204.909,60.138,205.261,59.63,205.756z"/>
	</g>
	<g>
		<rect x="154.182" y="67.241" fill="#FFFFFF" width="8.363" height="15.681"/>
		<path fill="#00DEA7" d="M164.636,85.013h-12.545V65.15h12.545V85.013z M156.272,80.831h4.182V69.332h-4.182V80.831z"/>
	</g>
	<g>
		<rect x="152.091" y="56.265" fill="#00DEA7" width="4.182" height="10.454"/>
	</g>
	<g>
		<rect x="145.818" y="88.149" fill="#F6F6F6" width="3.136" height="4.182"/>
	</g>
	<g>
		<rect x="150.522" y="88.149" fill="#F6F6F6" width="3.137" height="4.182"/>
	</g>
	<g>
		<rect x="155.227" y="88.149" fill="#F6F6F6" width="3.136" height="4.182"/>
	</g>
	<g>
		<rect x="159.931" y="88.149" fill="#F6F6F6" width="3.136" height="4.182"/>
	</g>
	<g>
		<rect x="145.818" y="95.99" fill="#F6F6F6" width="3.136" height="4.182"/>
	</g>
	<g>
		<rect x="150.522" y="95.99" fill="#F6F6F6" width="3.137" height="4.182"/>
	</g>
	<g>
		<rect x="155.227" y="95.99" fill="#F6F6F6" width="3.136" height="4.182"/>
	</g>
	<g>
		<rect x="159.931" y="95.99" fill="#F6F6F6" width="3.136" height="4.182"/>
	</g>
	<g>
		<rect x="145.818" y="103.83" fill="#F6F6F6" width="3.136" height="4.182"/>
	</g>
	<g>
		<rect x="150.522" y="103.83" fill="#F6F6F6" width="3.137" height="4.182"/>
	</g>
	<g>
		<rect x="155.227" y="103.83" fill="#F6F6F6" width="3.136" height="4.182"/>
	</g>
	<g>
		<rect x="159.931" y="103.83" fill="#F6F6F6" width="3.136" height="4.182"/>
	</g>
	<g>
		<rect x="145.818" y="111.67" fill="#F6F6F6" width="3.136" height="4.182"/>
	</g>
	<g>
		<rect x="150.522" y="111.67" fill="#F6F6F6" width="3.137" height="4.182"/>
	</g>
	<g>
		<rect x="155.227" y="111.67" fill="#F6F6F6" width="3.136" height="4.182"/>
	</g>
	<g>
		<rect x="159.931" y="111.67" fill="#F6F6F6" width="3.136" height="4.182"/>
	</g>
	<g>
		<rect x="145.818" y="119.511" fill="#F6F6F6" width="3.136" height="4.182"/>
	</g>
	<g>
		<rect x="150.522" y="119.511" fill="#F6F6F6" width="3.137" height="4.182"/>
	</g>
	<g>
		<rect x="155.227" y="119.511" fill="#F6F6F6" width="3.136" height="4.182"/>
	</g>
	<g>
		<rect x="159.931" y="119.511" fill="#F6F6F6" width="3.136" height="4.182"/>
	</g>
	<g>
		<rect x="145.818" y="127.352" fill="#F6F6F6" width="3.136" height="4.182"/>
	</g>
	<g>
		<rect x="150.522" y="127.352" fill="#F6F6F6" width="3.137" height="4.182"/>
	</g>
	<g>
		<rect x="155.227" y="127.352" fill="#F6F6F6" width="3.136" height="4.182"/>
	</g>
	<g>
		<rect x="159.931" y="127.352" fill="#F6F6F6" width="3.136" height="4.182"/>
	</g>
	<g>
		<rect x="145.818" y="135.192" fill="#F6F6F6" width="3.136" height="4.181"/>
	</g>
	<g>
		<rect x="150.522" y="135.192" fill="#F6F6F6" width="3.137" height="4.181"/>
	</g>
	<g>
		<rect x="155.227" y="135.192" fill="#F6F6F6" width="3.136" height="4.181"/>
	</g>
	<g>
		<rect x="159.931" y="135.192" fill="#F6F6F6" width="3.136" height="4.181"/>
	</g>
	<g>
		<rect x="145.818" y="143.032" fill="#F6F6F6" width="3.136" height="4.182"/>
	</g>
	<g>
		<rect x="150.522" y="143.032" fill="#F6F6F6" width="3.137" height="4.182"/>
	</g>
	<g>
		<rect x="155.227" y="143.032" fill="#F6F6F6" width="3.136" height="4.182"/>
	</g>
	<g>
		<rect x="159.931" y="143.032" fill="#F6F6F6" width="3.136" height="4.182"/>
	</g>
	<g>
		<path fill="#F6F6F6" d="M142.68,78.741c-1.064,0-1.975-0.81-2.079-1.891c-0.297-3.094-2.869-5.427-5.981-5.427
			c-0.428,0-0.871,0.05-1.317,0.15c-1.089,0.243-2.178-0.413-2.472-1.488c-1.301-4.752-5.654-8.071-10.585-8.071
			c-4.52,0-8.64,2.837-10.254,7.06c-0.246,0.643-0.792,1.123-1.46,1.285c-0.668,0.162-1.374-0.015-1.887-0.473
			c-1.154-1.032-2.636-1.601-4.171-1.601c-1.993,0-3.824,0.923-5.024,2.533c-0.604,0.809-1.698,1.072-2.601,0.625
			c-0.73-0.361-1.506-0.543-2.306-0.543c-2.882,0-5.227,2.345-5.227,5.227c0,0.107,0.009,0.213,0.017,0.319l0.004,0.053
			c0.042,0.58-0.16,1.15-0.555,1.575c-0.396,0.425-0.95,0.667-1.531,0.667H63.446c-1.155,0-2.091-0.937-2.091-2.091
			c0-1.154,0.936-2.09,2.091-2.09h19.819c0.749-4.445,4.624-7.841,9.278-7.841c0.896,0,1.773,0.126,2.622,0.375
			c1.941-1.916,4.53-2.988,7.31-2.988c1.662,0,3.284,0.397,4.744,1.144c2.701-4.519,7.661-7.417,13.028-7.417
			c6.193,0,11.725,3.792,14.028,9.415c5.434-0.194,9.974,3.838,10.489,9.202c0.111,1.15-0.732,2.171-1.881,2.282
			C142.814,78.738,142.747,78.741,142.68,78.741z"/>
	</g>
	<g>
		<path fill="#F6F6F6" d="M55.138,78.741H42.594c-1.155,0-2.091-0.937-2.091-2.091c0-1.154,0.937-2.09,2.091-2.09h12.544
			c1.155,0,2.091,0.936,2.091,2.09C57.229,77.804,56.293,78.741,55.138,78.741z"/>
	</g>
	<g>
		<rect x="176.658" y="113.239" fill="#FFFFFF" width="11.5" height="94.609"/>
	</g>
	<g>
		<path fill="#00DEA7" d="M223.178,209.938h-48.611v-99.312h48.611V209.938z M178.749,205.756h40.248v-90.949h-40.248V205.756z"/>
	</g>
	<g>
		<rect x="186.066" y="112.716" fill="#00DEA7" width="4.182" height="95.131"/>
	</g>
	<g>
		<rect x="179.794" y="117.943" fill="#F6F6F6" width="5.227" height="4.181"/>
	</g>
	<g>
		<rect x="179.794" y="126.307" fill="#F6F6F6" width="5.227" height="4.181"/>
	</g>
	<g>
		<rect x="179.794" y="134.669" fill="#F6F6F6" width="5.227" height="4.182"/>
	</g>
	<g>
		<rect x="179.794" y="143.032" fill="#F6F6F6" width="5.227" height="4.182"/>
	</g>
	<g>
		<rect x="179.794" y="151.396" fill="#F6F6F6" width="5.227" height="4.182"/>
	</g>
	<g>
		<rect x="179.794" y="159.759" fill="#F6F6F6" width="5.227" height="4.182"/>
	</g>
	<g>
		<rect x="179.794" y="168.122" fill="#F6F6F6" width="5.227" height="4.181"/>
	</g>
	<g>
		<rect x="179.794" y="176.485" fill="#F6F6F6" width="5.227" height="4.181"/>
	</g>
	<g>
		<rect x="179.794" y="184.849" fill="#F6F6F6" width="5.227" height="4.181"/>
	</g>
	<g>
		<rect x="179.794" y="193.212" fill="#726F6F" width="5.227" height="4.181"/>
	</g>
	<g>
		<rect x="195.997" y="117.943" fill="#F6F6F6" width="20.386" height="4.181"/>
	</g>
	<g>
		<rect x="195.997" y="126.307" fill="#F6F6F6" width="20.386" height="4.181"/>
	</g>
	<g>
		<rect x="195.997" y="134.669" fill="#F6F6F6" width="20.386" height="4.182"/>
	</g>
	<g>
		<rect x="195.997" y="143.032" fill="#F6F6F6" width="20.386" height="4.182"/>
	</g>
	<g>
		<rect x="195.997" y="151.396" fill="#F6F6F6" width="20.386" height="4.182"/>
	</g>
	<g>
		<rect x="195.997" y="159.759" fill="#F6F6F6" width="20.386" height="4.182"/>
	</g>
	<g>
		<rect x="195.997" y="168.122" fill="#F6F6F6" width="20.386" height="4.181"/>
	</g>
	<g>
		<rect x="195.997" y="176.485" fill="#F6F6F6" width="20.386" height="4.181"/>
	</g>
	<g>
		<rect x="195.997" y="184.849" fill="#F6F6F6" width="20.386" height="4.181"/>
	</g>
	<g>
		<rect x="195.997" y="193.212" fill="#F6F6F6" width="20.386" height="4.181"/>
	</g>
	<g>
		<path fill="#00DEA7" d="M220.042,114.807h-33.453v-14.113h33.453V114.807z M190.771,110.625h25.09v-5.75h-25.09V110.625z"/>
	</g>
	<g>
		<rect x="202.792" y="106.966" fill="#F6F6F6" width="4.183" height="2.091"/>
	</g>
	<g>
		<rect x="209.588" y="106.966" fill="#F6F6F6" width="4.181" height="2.091"/>
	</g>
	<g>
		<rect x="208.542" y="61.491" fill="#E5E5E5" width="4.705" height="2.091"/>
	</g>
	<g>
		<rect x="217.428" y="61.491" fill="#F6F6F6" width="18.817" height="2.091"/>
	</g>
	<g>
		<rect x="208.542" y="67.764" fill="#E5E5E5" width="4.705" height="2.09"/>
	</g>
	<g>
		<rect x="217.428" y="67.764" fill="#F6F6F6" width="18.817" height="2.09"/>
	</g>
	<g>
		<rect x="208.542" y="74.036" fill="#E5E5E5" width="4.705" height="2.091"/>
	</g>
	<g>
		<rect x="217.428" y="74.036" fill="#F6F6F6" width="18.817" height="2.091"/>
	</g>
	<g>
		<rect x="208.542" y="80.309" fill="#E5E5E5" width="4.705" height="2.091"/>
	</g>
	<g>
		<rect x="217.428" y="80.309" fill="#F6F6F6" width="18.817" height="2.091"/>
	</g>
	<g>
		<rect x="208.542" y="86.581" fill="#E5E5E5" width="4.705" height="2.091"/>
	</g>
	<g>
		<rect x="217.428" y="86.581" fill="#F6F6F6" width="18.817" height="2.091"/>
	</g>
	<g>
		<rect x="208.542" y="92.854" fill="#E5E5E5" width="4.705" height="2.09"/>
	</g>
	<g>
		<rect x="217.428" y="92.854" fill="#F6F6F6" width="18.817" height="2.09"/>
	</g>
	<g>
		<rect x="211.155" y="43.197" fill="#00DEA7" width="4.183" height="11.5"/>
	</g>
	<g>
		<rect x="224.224" y="49.992" fill="#E5E5E5" width="7.84" height="6.273"/>
		<path fill="#00DEA7" d="M234.154,58.355h-12.022V47.901h12.022V58.355z M226.314,54.173h3.659v-2.09h-3.659V54.173z"/>
	</g>
	<g>
		<rect x="137.978" y="85.536" fill="#F6F6F6" width="2.09" height="31.362"/>
	</g>
	<g>
		<rect x="232.587" y="89.717" fill="#FFFFFF" width="36.066" height="118.13"/>
	</g>
	<g>
		<rect x="233.632" y="90.763" fill="#F6F6F6" width="9.409" height="116.039"/>
	</g>
	<g>
		<rect x="234.154" y="94.422" fill="#F6F6F6" width="8.363" height="4.181"/>
	</g>
	<g>
		<rect x="246.177" y="94.422" fill="#F6F6F6" width="20.385" height="4.181"/>
	</g>
	<g>
		<rect x="234.154" y="101.739" fill="#F6F6F6" width="8.363" height="4.182"/>
	</g>
	<g>
		<rect x="246.177" y="101.739" fill="#F6F6F6" width="20.385" height="4.182"/>
	</g>
	<g>
		<rect x="234.154" y="109.057" fill="#F6F6F6" width="8.363" height="4.182"/>
	</g>
	<g>
		<rect x="246.177" y="109.057" fill="#F6F6F6" width="20.385" height="4.182"/>
	</g>
	<g>
		<rect x="234.154" y="116.374" fill="#F6F6F6" width="8.363" height="4.183"/>
	</g>
	<g>
		<rect x="246.177" y="116.374" fill="#F6F6F6" width="20.385" height="4.183"/>
	</g>
	<g>
		<rect x="234.154" y="123.692" fill="#F6F6F6" width="8.363" height="4.182"/>
	</g>
	<g>
		<rect x="246.177" y="123.692" fill="#F6F6F6" width="20.385" height="4.182"/>
	</g>
	<g>
		<rect x="234.154" y="131.01" fill="#F6F6F6" width="8.363" height="4.183"/>
	</g>
	<g>
		<rect x="246.177" y="131.01" fill="#F6F6F6" width="20.385" height="4.183"/>
	</g>
	<g>
		<rect x="234.154" y="138.328" fill="#F6F6F6" width="8.363" height="4.182"/>
	</g>
	<g>
		<rect x="246.177" y="138.328" fill="#F6F6F6" width="20.385" height="4.182"/>
	</g>
	<g>
		<rect x="234.154" y="145.646" fill="#F6F6F6" width="8.363" height="4.181"/>
	</g>
	<g>
		<rect x="246.177" y="145.646" fill="#F6F6F6" width="20.385" height="4.181"/>
	</g>
	<g>
		<rect x="234.154" y="152.964" fill="#F6F6F6" width="8.363" height="4.182"/>
	</g>
	<g>
		<rect x="246.177" y="152.964" fill="#F6F6F6" width="20.385" height="4.182"/>
	</g>
	<g>
		<rect x="234.154" y="160.282" fill="#F6F6F6" width="8.363" height="4.181"/>
	</g>
	<g>
		<rect x="246.177" y="160.282" fill="#F6F6F6" width="20.385" height="4.181"/>
	</g>
	<g>
		<rect x="234.154" y="167.6" fill="#F6F6F6" width="8.363" height="4.182"/>
	</g>
	<g>
		<rect x="246.177" y="167.6" fill="#F6F6F6" width="20.385" height="4.182"/>
	</g>
	<g>
		<rect x="234.154" y="174.918" fill="#F6F6F6" width="8.363" height="4.181"/>
	</g>
	<g>
		<rect x="246.177" y="174.918" fill="#F6F6F6" width="20.385" height="4.181"/>
	</g>
	<g>
		<rect x="234.154" y="182.235" fill="#F6F6F6" width="8.363" height="4.181"/>
	</g>
	<g>
		<rect x="246.177" y="182.235" fill="#F6F6F6" width="20.385" height="4.181"/>
	</g>
	<g>
		<rect x="234.154" y="189.553" fill="#F6F6F6" width="8.363" height="4.182"/>
	</g>
	<g>
		<rect x="246.177" y="189.553" fill="#F6F6F6" width="20.385" height="4.182"/>
	</g>
	<g>
		<rect x="234.154" y="196.871" fill="#878787" width="8.363" height="4.181"/>
	</g>
	<g>
		<rect x="246.177" y="196.871" fill="#CCCCCC" width="20.385" height="4.181"/>
	</g>
	<g>
		<path fill="#00DEA7" d="M270.743,209.938h-40.248V87.626h40.248V209.938z M234.678,205.756h31.884V91.808h-31.884V205.756z"/>
	</g>
	<g>
		<rect x="241.995" y="89.717" fill="#00DEA7" width="4.182" height="117.607"/>
	</g>
	<g>
		<rect x="245.654" y="81.877" fill="#E0E0E0" width="21.953" height="7.84"/>
	</g>
	<g>
		<rect x="247.222" y="83.444" fill="#E5E5E5" width="4.182" height="5.228"/>
	</g>
	<g>
		<path fill="#00DEA7" d="M269.697,91.808h-26.134V79.786h26.134V91.808z M247.744,87.626h17.772v-3.659h-17.772V87.626z"/>
	</g>
	<g>
		<rect x="250.358" y="82.922" fill="#00DEA7" width="4.182" height="5.75"/>
	</g>
	<g>
		<rect x="204.361" y="116.897" fill="#FFFFFF" width="4.181" height="84.678"/>
	</g>
	<g>
		<rect x="269.175" y="122.124" fill="#FFFFFF" width="32.408" height="85.724"/>
	</g>
	<g>
		<rect x="269.175" y="122.124" fill="#F6F6F6" width="10.978" height="85.724"/>
	</g>
	<g>
		<path fill="#00DEA7" d="M303.673,209.938h-36.589v-89.904h36.589V209.938z M271.267,205.756h28.226v-81.54h-28.226V205.756z"/>
	</g>
	<g>
		<rect x="275.447" y="105.921" fill="#FFFFFF" width="20.908" height="16.203"/>
	</g>
	<g>
		<rect x="275.447" y="105.921" fill="#F6F6F6" width="7.841" height="16.203"/>
	</g>
	<g>
		<path fill="#00DEA7" d="M298.446,124.216h-25.09V103.83h25.09V124.216z M277.539,120.033h16.727v-12.021h-16.727V120.033z"/>
	</g>
	<g>
		<rect x="279.63" y="93.376" fill="#FFFFFF" width="12.544" height="12.545"/>
	</g>
	<g>
		<rect x="279.63" y="93.376" fill="#F6F6F6" width="4.181" height="12.545"/>
	</g>
	<g>
		<path fill="#00DEA7" d="M294.266,108.012h-16.727V91.285h16.727V108.012z M281.72,103.83h8.363v-8.363h-8.363V103.83z"/>
	</g>
	<g>
		<rect x="281.197" y="106.966" fill="#00DEA7" width="4.182" height="14.113"/>
	</g>
	<g>
		<rect x="278.061" y="123.692" fill="#00DEA7" width="4.183" height="83.632"/>
	</g>
	<g>
		<rect x="285.379" y="79.264" fill="#00DEA7" width="2.091" height="12.021"/>
	</g>
	<g>
		<rect x="283.811" y="125.261" fill="#F6F6F6" width="2.091" height="78.404"/>
	</g>
	<g>
		<rect x="273.356" y="125.261" fill="#E5E5E5" width="2.091" height="78.404"/>
	</g>
	<g>
		<rect x="287.993" y="125.261" fill="#F6F6F6" width="2.09" height="78.404"/>
	</g>
	<g>
		<rect x="292.174" y="125.261" fill="#F6F6F6" width="2.092" height="78.404"/>
	</g>
	<g>
		<rect x="296.355" y="125.261" fill="#F6F6F6" width="2.091" height="78.404"/>
	</g>
	<g>
		<rect x="286.947" y="108.535" fill="#F6F6F6" width="2.09" height="10.455"/>
	</g>
	<g>
		<rect x="291.129" y="108.535" fill="#F6F6F6" width="2.091" height="10.455"/>
	</g>
	<g>
		<rect x="286.947" y="95.99" fill="#F6F6F6" width="2.09" height="7.317"/>
	</g>
	<g>
		<rect x="294.266" y="133.624" fill="#FFFFFF" width="40.247" height="74.224"/>
	</g>
	<g>
		<rect x="294.266" y="133.624" fill="#F6F6F6" width="13.066" height="74.224"/>
	</g>
	<g>
		<path fill="#00DEA7" d="M336.604,209.938h-44.43v-78.404h44.43V209.938z M296.355,205.756h36.066v-70.041h-36.066V205.756z"/>
	</g>
	<g>
		<rect x="305.242" y="133.624" fill="#00DEA7" width="4.181" height="74.224"/>
	</g>
	<g>
		<rect x="301.583" y="118.466" fill="#FFFFFF" width="25.612" height="15.158"/>
		<path fill="#68615F" d="M329.286,135.715h-29.794v-19.341h29.794V135.715z M303.673,131.533h21.432v-10.977h-21.432V131.533z"/>
	</g>
	<g>
		<rect x="301.583" y="118.466" fill="#F6F6F6" width="8.363" height="15.158"/>
	</g>
	<g>
		<path fill="#00DEA7" d="M329.286,135.715h-29.794v-19.341h29.794V135.715z M303.673,131.533h21.432v-10.977h-21.432V131.533z"/>
	</g>
	<g>
		<rect x="307.855" y="118.466" fill="#00DEA7" width="4.181" height="15.158"/>
	</g>
	<g>
		<rect x="304.196" y="124.216" fill="#F6F6F6" width="3.136" height="4.181"/>
	</g>
	<g>
		<rect x="298.97" y="138.851" fill="#E5E5E5" width="4.181" height="4.182"/>
	</g>
	<g>
		<rect x="298.97" y="145.646" fill="#E5E5E5" width="4.181" height="4.181"/>
	</g>
	<g>
		<rect x="311.514" y="138.851" fill="#F6F6F6" width="4.182" height="4.182"/>
	</g>
	<g>
		<rect x="311.514" y="145.646" fill="#F6F6F6" width="4.182" height="4.181"/>
	</g>
	<g>
		<rect x="318.832" y="138.851" fill="#F6F6F6" width="4.181" height="4.182"/>
	</g>
	<g>
		<rect x="313.605" y="124.216" fill="#F6F6F6" width="4.181" height="4.181"/>
	</g>
	<g>
		<rect x="319.877" y="124.216" fill="#F6F6F6" width="4.182" height="4.181"/>
	</g>
	<g>
		<rect x="318.832" y="145.646" fill="#F6F6F6" width="4.181" height="4.181"/>
	</g>
	<g>
		<rect x="326.149" y="138.851" fill="#F6F6F6" width="4.182" height="4.182"/>
	</g>
	<g>
		<rect x="326.149" y="145.646" fill="#F6F6F6" width="4.182" height="4.181"/>
	</g>
	<g>
		<rect x="311.514" y="152.441" fill="#F6F6F6" width="4.182" height="4.182"/>
	</g>
	<g>
		<rect x="311.514" y="159.236" fill="#F6F6F6" width="4.182" height="4.182"/>
	</g>
	<g>
		<rect x="318.832" y="152.441" fill="#F6F6F6" width="4.181" height="4.182"/>
	</g>
	<g>
		<rect x="318.832" y="159.236" fill="#F6F6F6" width="4.181" height="4.182"/>
	</g>
	<g>
		<rect x="326.149" y="152.441" fill="#F6F6F6" width="4.182" height="4.182"/>
	</g>
	<g>
		<rect x="326.149" y="159.236" fill="#F6F6F6" width="4.182" height="4.182"/>
	</g>
	<g>
		<rect x="311.514" y="166.031" fill="#F6F6F6" width="4.182" height="4.182"/>
	</g>
	<g>
		<rect x="311.514" y="172.826" fill="#F6F6F6" width="4.182" height="4.182"/>
	</g>
	<g>
		<rect x="318.832" y="166.031" fill="#F6F6F6" width="4.181" height="4.182"/>
	</g>
	<g>
		<rect x="318.832" y="172.826" fill="#F6F6F6" width="4.181" height="4.182"/>
	</g>
	<g>
		<rect x="326.149" y="166.031" fill="#F6F6F6" width="4.182" height="4.182"/>
	</g>
	<g>
		<rect x="326.149" y="172.826" fill="#F6F6F6" width="4.182" height="4.182"/>
	</g>
	<g>
		<rect x="311.514" y="179.621" fill="#F6F6F6" width="4.182" height="4.182"/>
	</g>
	<g>
		<rect x="311.514" y="186.416" fill="#F6F6F6" width="4.182" height="4.183"/>
	</g>
	<g>
		<rect x="318.832" y="179.621" fill="#F6F6F6" width="4.181" height="4.182"/>
	</g>
	<g>
		<rect x="318.832" y="186.416" fill="#F6F6F6" width="4.181" height="4.183"/>
	</g>
	<g>
		<rect x="326.149" y="179.621" fill="#F6F6F6" width="4.182" height="4.182"/>
	</g>
	<g>
		<rect x="326.149" y="186.416" fill="#F6F6F6" width="4.182" height="4.183"/>
	</g>
	<g>
		<rect x="311.514" y="193.212" fill="#F6F6F6" width="4.182" height="4.181"/>
	</g>
	<g>
		<rect x="318.832" y="193.212" fill="#F6F6F6" width="4.181" height="4.181"/>
	</g>
	<g>
		<rect x="326.149" y="193.212" fill="#F6F6F6" width="4.182" height="4.181"/>
	</g>
	<g>
		<rect x="298.97" y="152.441" fill="#E5E5E5" width="4.181" height="4.182"/>
	</g>
	<g>
		<rect x="298.97" y="159.236" fill="#E5E5E5" width="4.181" height="4.182"/>
	</g>
	<g>
		<rect x="298.97" y="166.031" fill="#E5E5E5" width="4.181" height="4.182"/>
	</g>
	<g>
		<rect x="298.97" y="172.826" fill="#E5E5E5" width="4.181" height="4.182"/>
	</g>
	<g>
		<rect x="298.97" y="179.621" fill="#E5E5E5" width="4.181" height="4.182"/>
	</g>
	<g>
		<rect x="298.97" y="186.416" fill="#E5E5E5" width="4.181" height="4.183"/>
	</g>
	<g>
		<rect x="298.97" y="193.212" fill="#E5E5E5" width="4.181" height="4.181"/>
	</g>
	<g>
		<rect x="137.455" y="200.529" fill="#00DEA7" width="18.817" height="4.182"/>
	</g>
	<g>
		<rect x="308.377" y="113.761" fill="#C4C4C4" width="13.592" height="4.705"/>
		<path fill="#00DEA7" d="M324.059,120.557h-17.771v-8.886h17.771V120.557z M310.469,116.374h9.408v-0.522h-9.408V116.374z"/>
	</g>
	<g>
		<rect x="124.91" y="200.529" fill="#00DEA7" width="8.363" height="4.182"/>
	</g>
	<g>
		<rect x="139.023" y="160.282" fill="#F6F6F6" width="15.158" height="4.181"/>
	</g>
	<g>
		<rect x="338.694" y="132.056" fill="#E5E5E5" width="4.182" height="71.087"/>
	</g>
	<g>
		<rect x="329.286" y="164.463" fill="#FFFFFF" width="26.135" height="43.385"/>
	</g>
	<g>
		<rect x="329.286" y="164.463" fill="#F6F6F6" width="10.453" height="43.385"/>
	</g>
	<g>
		<rect x="329.286" y="196.871" fill="#00DEA7" width="10.453" height="4.181"/>
	</g>
	<g>
		<rect x="339.739" y="196.871" fill="#F6F6F6" width="15.682" height="4.181"/>
	</g>
	<g>
		<path fill="#00DEA7" d="M357.512,209.938h-30.316v-47.565h30.316V209.938z M331.376,205.756h21.953v-39.201h-21.953V205.756z"/>
	</g>
	<g>
		<rect x="337.648" y="164.463" fill="#00DEA7" width="4.183" height="43.385"/>
	</g>
	<g>
		<rect x="342.876" y="169.168" fill="#F6F6F6" width="9.409" height="4.181"/>
	</g>
	<g>
		<rect x="342.876" y="175.962" fill="#F6F6F6" width="9.409" height="4.183"/>
	</g>
	<g>
		<rect x="342.876" y="182.758" fill="#F6F6F6" width="9.409" height="4.182"/>
	</g>
	<g>
		<rect x="342.876" y="189.553" fill="#F6F6F6" width="9.409" height="4.182"/>
	</g>
	<g>
		<path fill="#00DEA7" d="M41.801,209.938H25.075c-1.155,0-2.091-0.936-2.091-2.09c0-1.155,0.937-2.092,2.091-2.092h16.726
			c1.155,0,2.091,0.937,2.091,2.092C43.892,209.002,42.956,209.938,41.801,209.938z"/>
	</g>
	<g>
		<path fill="#00DEA7" d="M18.802,209.938h-4.181c-1.155,0-2.091-0.936-2.091-2.09c0-1.155,0.936-2.092,2.091-2.092h4.181
			c1.155,0,2.091,0.937,2.091,2.092C20.894,209.002,19.957,209.938,18.802,209.938z"/>
	</g>
	<g>
		<path fill="#00DEA7" d="M382.078,209.938h-4.181c-1.155,0-2.092-0.936-2.092-2.09c0-1.155,0.937-2.092,2.092-2.092h4.181
			c1.154,0,2.091,0.937,2.091,2.092C384.169,209.002,383.232,209.938,382.078,209.938z"/>
	</g>
	<g>
		<path fill="#00DEA7" d="M371.586,127.872c-0.001,0-0.003,0-0.005,0c-0.509-0.003-0.942-0.369-1.026-0.871
			c-0.016-0.088-0.419-2.264-2.104-2.264c-0.578,0-1.046-0.468-1.046-1.045s0.468-1.045,1.046-1.045
			c1.455,0,2.469,0.726,3.136,1.615c0.667-0.89,1.681-1.615,3.137-1.615c0.577,0,1.045,0.468,1.045,1.045s-0.468,1.045-1.045,1.045
			c-1.686,0-2.09,2.176-2.106,2.269C372.528,127.505,372.094,127.872,371.586,127.872z"/>
	</g>
	<g>
		<path fill="#00DEA7" d="M381.032,135.116c-0.106,0-0.216-0.018-0.322-0.052c-0.486-0.158-0.787-0.645-0.711-1.149
			c0.012-0.088,0.3-2.281-1.304-2.803c-0.548-0.178-0.85-0.768-0.671-1.316c0.178-0.549,0.765-0.849,1.317-0.672
			c1.385,0.45,2.124,1.452,2.484,2.505c0.908-0.641,2.096-1.018,3.481-0.567c0.549,0.179,0.85,0.768,0.671,1.317
			c-0.179,0.549-0.764,0.851-1.317,0.671c-1.624-0.529-2.689,1.481-2.7,1.503C381.777,134.906,381.414,135.116,381.032,135.116z"/>
	</g>
	<g>
		<path fill="#F6F6F6" d="M351.761,40.062c-0.9,0-1.732-0.586-2.002-1.494c-0.616-2.065-2.478-3.558-4.631-3.712
			c-0.856-0.062-1.588-0.64-1.845-1.459c-1.204-3.83-4.711-6.403-8.729-6.403c-2.463,0-4.775,0.968-6.51,2.727
			c-0.527,0.534-1.3,0.745-2.023,0.553c-0.725-0.192-1.291-0.757-1.484-1.481c-1.19-4.444-5.238-7.548-9.845-7.548
			c-4.755,0-8.834,3.23-9.919,7.854c-0.245,1.041-1.24,1.733-2.296,1.597c-0.232-0.029-0.421-0.043-0.592-0.043
			c-1.176,0-2.306,0.444-3.181,1.249c-0.53,0.49-1.278,0.67-1.975,0.477c-1.299-0.36-2.569-0.093-3.592,0.662
			c-0.52,0.383-1.187,0.505-1.808,0.33s-1.127-0.626-1.369-1.224c-0.888-2.178-2.978-3.584-5.324-3.584
			c-3.171,0-5.75,2.579-5.75,5.75c0,0.942,0.225,1.844,0.667,2.678c0.346,0.648,0.324,1.429-0.054,2.058
			c-0.378,0.628-1.058,1.014-1.792,1.014h-15.548c-1.154,0-2.091-0.937-2.091-2.091c0-1.155,0.937-2.091,2.091-2.091h12.671
			c-0.084-0.519-0.126-1.043-0.126-1.568c0-5.476,4.455-9.931,9.932-9.931c3.274,0,6.258,1.583,8.092,4.173
			c1.261-0.467,2.635-0.628,4.014-0.435c1.311-0.935,2.843-1.495,4.448-1.62c2.042-5.633,7.374-9.436,13.501-9.436
			c5.453,0,10.353,3.086,12.777,7.786c2.103-1.326,4.537-2.036,7.085-2.036c5.403,0,10.173,3.195,12.255,8.077
			c3.273,0.74,5.98,3.212,6.955,6.483c0.331,1.106-0.299,2.271-1.405,2.601C352.16,40.033,351.959,40.062,351.761,40.062z"/>
	</g>
	<g>
		<path fill="#F6F6F6" d="M253.799,40.061h-12.546c-1.154,0-2.091-0.937-2.091-2.091c0-1.155,0.937-2.091,2.091-2.091h12.546
			c1.154,0,2.09,0.936,2.09,2.091C255.889,39.125,254.953,40.061,253.799,40.061z"/>
	</g>
	<g>
		<path fill="#F6F6F6" d="M224.529,207.848h52.486c-0.6-1.695-1.901-3.058-3.558-3.737c0.041-0.326,0.064-0.659,0.064-0.997
			c0-4.357-3.532-7.89-7.889-7.89c-3.434,0-6.354,2.193-7.438,5.257c-0.918-0.658-2.041-1.049-3.257-1.049
			c-0.156,0-0.31,0.012-0.461,0.023c-1.335-2.118-3.688-3.53-6.377-3.53c-0.235,0-0.467,0.015-0.695,0.035
			c-1.695-2.556-4.599-4.243-7.896-4.243c-5.229,0-9.468,4.239-9.468,9.468c0,0.604,0.059,1.191,0.167,1.763
			C227.359,203.034,225.018,205.118,224.529,207.848z"/>
		<path fill="#00DEA7" d="M277.016,209.938h-52.486c-0.618,0-1.205-0.273-1.604-0.748c-0.396-0.475-0.563-1.101-0.454-1.71
			c0.53-2.975,2.699-5.351,5.479-6.244c0-0.017,0-0.033,0-0.051c0-6.373,5.185-11.559,11.559-11.559
			c3.481,0,6.737,1.556,8.925,4.214c2.791,0.095,5.36,1.38,7.11,3.524c0.582,0.046,1.154,0.157,1.707,0.333
			c1.811-2.798,4.951-4.564,8.382-4.564c5.427,0,9.855,4.354,9.978,9.753c1.553,0.999,2.749,2.495,3.376,4.263
			c0.227,0.64,0.128,1.352-0.265,1.905C278.332,209.608,277.695,209.938,277.016,209.938z M228.149,205.756h44.019
			c-0.568-0.444-0.878-1.164-0.785-1.907c0.033-0.258,0.05-0.498,0.05-0.735c0-3.197-2.603-5.799-5.799-5.799
			c-2.452,0-4.649,1.553-5.468,3.863c-0.219,0.619-0.716,1.1-1.343,1.296c-0.626,0.198-1.31,0.089-1.845-0.294
			c-0.681-0.487-1.521-0.708-2.33-0.642c-0.777,0.068-1.524-0.309-1.94-0.969c-1.007-1.6-2.729-2.554-4.607-2.554
			c-0.17,0-0.338,0.011-0.503,0.026c-0.768,0.073-1.51-0.284-1.936-0.927c-1.373-2.071-3.673-3.308-6.152-3.308
			c-4.067,0-7.376,3.311-7.376,7.377c0,0.455,0.043,0.917,0.129,1.376c0.114,0.601-0.041,1.22-0.425,1.696
			c-0.382,0.477-0.954,0.763-1.565,0.78C229.489,205.062,228.757,205.323,228.149,205.756z"/>
	</g>
	<g>
		<path fill="#F6F6F6" d="M194.978,207.848h4.652c1.867-0.876,3.162-2.768,3.162-4.966c0-3.031-2.457-5.489-5.488-5.489
			c-0.125,0-0.247,0.011-0.37,0.02c-1.503-4.271-5.561-7.337-10.345-7.337c-6.062,0-10.977,4.915-10.977,10.977
			c0,2.568,0.889,4.926,2.367,6.796H194.978z"/>
		<path fill="#00DEA7" d="M199.63,209.938h-21.651c-0.64,0-1.244-0.293-1.64-0.794c-1.843-2.332-2.818-5.13-2.818-8.092
			c0-7.205,5.862-13.067,13.068-13.067c5.041,0,9.6,2.917,11.759,7.39c3.688,0.51,6.535,3.683,6.535,7.508
			c0,2.921-1.713,5.614-4.364,6.858C200.241,209.87,199.938,209.938,199.63,209.938z M179.057,205.756h20.047
			c0.982-0.616,1.597-1.704,1.597-2.874c0-1.874-1.524-3.397-3.397-3.397c-0.053,0-0.105,0.005-0.158,0.009l-0.073,0.005
			c-0.931,0.062-1.799-0.506-2.111-1.393c-1.251-3.553-4.616-5.939-8.374-5.939c-4.9,0-8.886,3.986-8.886,8.886
			C177.703,202.737,178.169,204.346,179.057,205.756z"/>
	</g>
	<g>
		<g>
			<rect x="363.262" y="187.984" fill="#00DEA7" width="4.181" height="17.771"/>
		</g>
		<g>
			<path fill="#F6F6F6" d="M375.806,182.496c0-2.55-1.922-4.647-4.396-4.931c0.136-0.512,0.215-1.048,0.215-1.604
				c0-3.464-2.809-6.272-6.272-6.272s-6.272,2.809-6.272,6.272c0,0.987,0.234,1.917,0.641,2.748
				c-2.534,1.151-4.299,3.696-4.299,6.661c0,3.297,2.18,6.083,5.177,6.998c1.23,2.066,3.48,3.456,6.061,3.456
				c3.898,0,7.057-3.159,7.057-7.057c0-0.707-0.106-1.388-0.3-2.031C374.847,185.865,375.806,184.294,375.806,182.496z"/>
			<path fill="#00DEA7" d="M366.658,197.916c-2.935,0-5.71-1.441-7.418-3.81c-3.566-1.419-5.911-4.837-5.911-8.735
				c0-3.027,1.47-5.84,3.86-7.59c-0.133-0.595-0.201-1.202-0.201-1.819c0-4.61,3.752-8.362,8.363-8.362
				c4.612,0,8.363,3.752,8.363,8.362c0,0.03,0,0.061,0,0.089c2.485,1.106,4.183,3.595,4.183,6.445c0,1.957-0.791,3.772-2.169,5.087
				c0.052,0.394,0.077,0.789,0.077,1.186C375.806,193.812,371.702,197.916,366.658,197.916z M365.352,171.781
				c-2.305,0-4.181,1.876-4.181,4.181c0,0.633,0.144,1.249,0.428,1.829c0.248,0.508,0.28,1.095,0.089,1.627
				c-0.19,0.531-0.588,0.963-1.104,1.195c-1.867,0.849-3.072,2.716-3.072,4.758c0,2.313,1.486,4.322,3.697,4.998
				c0.496,0.152,0.919,0.484,1.186,0.931c0.907,1.524,2.501,2.435,4.264,2.435c2.738,0,4.966-2.228,4.966-4.966
				c0-0.481-0.071-0.963-0.212-1.431c-0.273-0.912,0.103-1.893,0.916-2.388c0.868-0.528,1.387-1.445,1.387-2.454
				c0-1.461-1.093-2.688-2.543-2.853c-0.603-0.07-1.146-0.397-1.488-0.899c-0.343-0.501-0.45-1.125-0.295-1.713
				c0.097-0.364,0.146-0.724,0.146-1.069C369.534,173.657,367.657,171.781,365.352,171.781z"/>
		</g>
	</g>
</g>
</svg>
