<?xml version="1.0" encoding="utf-8"?>
<!-- Generator: Adobe Illustrator 16.0.0, SVG Export Plug-In . SVG Version: 6.00 Build 0)  -->
<!DOCTYPE svg PUBLIC "-//W3C//DTD SVG 1.1//EN" "http://www.w3.org/Graphics/SVG/1.1/DTD/svg11.dtd">
<svg version="1.1" id="Layer_1" xmlns="http://www.w3.org/2000/svg" xmlns:xlink="http://www.w3.org/1999/xlink" x="0px" y="0px"
	 width="300px" height="300px" viewBox="0 0 300 300" enable-background="new 0 0 300 300" xml:space="preserve">
<g display="none">
	<path display="inline" fill="#05CC8E" d="M149.997,5.377v69.059h19.657v121.891h34.404V229.1h-54.061v65.523
		c79.879,0,144.631-64.752,144.631-144.622C294.628,70.128,229.876,5.377,149.997,5.377z"/>
	<path display="inline" fill="#00DEA7" d="M94.087,229.1v-32.772h38.463v-82.074c-1.621,2.166-4.159,4.382-7.584,6.638
		c-3.433,2.259-7.227,4.382-11.374,6.362c-4.155,1.99-8.492,3.617-13.003,4.877c-4.518,1.265-8.492,1.896-11.921,1.896v-33.857
		c3.255,0,7.223-1.037,11.921-3.114c4.694-2.075,9.303-4.56,13.814-7.448c4.511-2.888,8.488-5.732,11.917-8.533
		c3.429-2.798,5.504-5.011,6.23-6.637h17.446V5.377c-79.873,0-144.625,64.75-144.625,144.624
		c0,79.87,64.752,144.622,144.625,144.622V229.1H94.087z"/>
</g>
<g display="none">
	<path display="inline" fill="#05CC8E" d="M169.907,128.183c1.994-2.636,2.991-5.683,2.991-9.138c0-5.449-2.177-10.128-6.542-14.042
		c-3.899-3.491-9.412-5.333-16.356-5.704v43.144c4.244-2.303,7.941-4.469,11.042-6.489
		C164.951,133.409,167.9,130.818,169.907,128.183z"/>
	<path display="inline" fill="#05CC8E" d="M150,5.375v62.092c1.376-0.05,2.685-0.224,4.09-0.224c9.262,0,17.539,1.139,24.803,3.409
		c7.268,2.273,13.413,5.453,18.411,9.54c4.999,4.092,8.808,9,11.45,14.725c2.629,5.728,3.956,11.957,3.956,18.679
		c0,6.365-1.191,11.996-3.551,16.904c-2.354,4.906-5.36,9.268-8.986,13.084c-3.64,3.817-7.596,7.136-11.87,9.951
		c-4.274,2.823-8.411,5.317-12.401,7.505c-3.275,1.813-6.777,3.808-10.497,5.997c-3.73,2.177-7.413,4.59-11.041,7.219
		c-1.519,1.106-2.953,2.271-4.364,3.454v14.957h65.703v32.991H150v68.967c79.874,0,144.623-64.752,144.623-144.627
		C294.623,70.125,229.874,5.375,150,5.375z"/>
	<path display="inline" fill="#00DEA7" d="M84.286,225.658c0-8.185,0.634-15.588,1.915-22.222
		c1.271-6.631,3.537-12.771,6.812-18.404c3.277-5.635,7.628-10.91,13.093-15.818c5.454-4.909,12.448-9.721,20.995-14.449
		c7.266-3.995,13.764-7.499,19.487-10.497c1.184-0.62,2.307-1.224,3.413-1.825V99.299c-0.823-0.046-1.581-0.156-2.448-0.156
		c-4.366,0-8.366,0.595-12.006,1.776c-3.64,1.18-7.039,2.771-10.225,4.767c-3.174,2.001-6.086,4.226-8.717,6.68
		c-2.643,2.456-5.044,5.047-7.231,7.773L85.928,93.146c2.359-2.544,5.726-5.319,10.089-8.314c4.354-2.999,9.489-5.816,15.395-8.452
		c5.918-2.636,12.458-4.814,19.635-6.546c5.951-1.428,12.323-2.12,18.954-2.366V5.375c-79.873,0-144.625,64.75-144.625,144.624
		c0,79.875,64.752,144.627,144.625,144.627v-68.967H84.286z"/>
	<path display="inline" fill="#00DEA7" d="M137.463,192.667H150V177.71c-1.962,1.644-3.851,3.34-5.59,5.14
		C141.407,185.944,139.095,189.209,137.463,192.667z"/>
</g>
<g display="none">
	<path display="inline" fill="#05CC8E" d="M169.611,186.874c0-8.479-3.028-15.01-9.058-19.571c-2.823-2.131-6.382-3.72-10.553-4.854
		v47.288c4.635-0.955,8.585-2.485,11.654-4.753C166.958,201.065,169.611,195.03,169.611,186.874z"/>
	<path display="inline" fill="#05CC8E" d="M165.45,112.003c0-6.688-2.243-11.66-6.734-14.924c-2.465-1.792-5.396-3.041-8.715-3.849
		v39.965c2.641-1.043,5.089-2.287,7.13-3.942C162.674,124.768,165.45,119.02,165.45,112.003z"/>
	<path display="inline" fill="#05CC8E" d="M150,5.375v58.604c6.247,0.363,12.055,1.352,17.412,3.004
		c6.836,2.122,12.718,5.059,17.604,8.809c4.898,3.754,8.694,8.28,11.38,13.58c2.688,5.302,4.037,11.217,4.037,17.738
		c0,4.895-0.738,9.545-2.199,13.949c-1.474,4.404-3.594,8.403-6.359,11.988c-2.779,3.59-6.087,6.608-9.909,9.054
		c-3.843,2.445-8.046,4.078-12.604,4.892c10.282,1.8,18.558,6.644,24.838,14.557c6.279,7.912,9.42,17.584,9.42,28.998
		c0,7.669-1.52,14.597-4.535,20.794c-3.016,6.2-7.301,11.459-12.844,15.778s-12.231,7.675-20.064,10.034
		c-5.01,1.519-10.428,2.493-16.175,3.036v54.436c79.874,0,144.623-64.752,144.623-144.627C294.623,70.125,229.874,5.375,150,5.375z"
		/>
	<path display="inline" fill="#00DEA7" d="M140,240.7c-12.56,0-23.611-1.994-33.157-5.987c-9.534-4-17.411-9.825-23.601-17.5
		l18.591-23.243c4.24,5.386,9.25,9.54,15.042,12.482c5.792,2.929,13.092,4.4,21.9,4.4c4.183,0,7.862-0.426,11.224-1.116v-47.288
		c-4.757-1.297-10.328-1.998-16.846-1.998h-6.858v-24.469h7.596c6.279,0,11.579-0.997,16.108-2.786V93.231
		c-2.728-0.666-5.703-1.046-9.013-1.046c-7.517,0-14.238,1.711-20.188,5.138c-5.952,3.426-10.814,8.239-14.568,14.436l-20.551-23
		c2.448-3.75,5.711-7.133,9.793-10.154c4.069-3.016,8.683-5.626,13.818-7.828c5.135-2.204,10.725-3.917,16.765-5.141
		c6.032-1.221,12.233-1.833,18.593-1.833c1.824,0,3.6,0.074,5.351,0.175V5.375c-79.873,0-144.625,64.75-144.625,144.624
		c0,79.875,64.752,144.627,144.625,144.627v-54.436C146.77,240.489,143.464,240.7,140,240.7z"/>
</g>
<g>
	<path fill="#FFFFFF" d="M210.367,229.235H89.626c-10.4,0-18.863-8.466-18.863-18.869V89.634c0-10.403,8.462-18.869,18.863-18.869
		h120.741c10.403,0,18.869,8.466,18.869,18.869v120.732C229.236,220.77,220.771,229.235,210.367,229.235z M89.626,88.373
		c-0.693,0-1.255,0.564-1.255,1.261v120.732c0,0.693,0.562,1.261,1.255,1.261h120.741c0.693,0,1.261-0.567,1.261-1.261V89.634
		c0-0.696-0.567-1.261-1.261-1.261H89.626z"/>
</g>
<g>
	<path fill="#FFFFFF" d="M126.298,123.279c0,1.662-1.358,3.021-3.026,3.021h-19.643c-1.668,0-3.026-1.358-3.026-3.021v-19.648
		c0-1.674,1.358-3.026,3.026-3.026h19.643c1.668,0,3.026,1.353,3.026,3.026V123.279z"/>
</g>
<g>
	<path fill="#FFFFFF" d="M162.852,123.279c0,1.662-1.364,3.021-3.026,3.021h-19.651c-1.668,0-3.026-1.358-3.026-3.021v-19.648
		c0-1.674,1.358-3.026,3.026-3.026h19.651c1.662,0,3.026,1.353,3.026,3.026V123.279z"/>
</g>
<g>
	<path fill="#FFFFFF" d="M199.396,123.279c0,1.662-1.363,3.021-3.026,3.021h-19.647c-1.662,0-3.026-1.358-3.026-3.021v-19.648
		c0-1.674,1.364-3.026,3.026-3.026h19.647c1.663,0,3.026,1.353,3.026,3.026V123.279z"/>
</g>
<g>
	<path fill="#FFFFFF" d="M126.298,159.824c0,1.674-1.358,3.026-3.026,3.026h-19.643c-1.668,0-3.026-1.353-3.026-3.026v-19.648
		c0-1.673,1.358-3.026,3.026-3.026h19.643c1.668,0,3.026,1.353,3.026,3.026V159.824z"/>
</g>
<g>
	<path fill="#FFFFFF" d="M162.852,159.824c0,1.674-1.364,3.026-3.026,3.026h-19.651c-1.668,0-3.026-1.353-3.026-3.026v-19.648
		c0-1.673,1.358-3.026,3.026-3.026h19.651c1.662,0,3.026,1.353,3.026,3.026V159.824z"/>
</g>
<g>
	<path fill="#FFFFFF" d="M199.396,159.824c0,1.674-1.363,3.026-3.026,3.026h-19.647c-1.662,0-3.026-1.353-3.026-3.026v-19.648
		c0-1.673,1.364-3.026,3.026-3.026h19.647c1.663,0,3.026,1.353,3.026,3.026V159.824z"/>
</g>
<g>
	<path fill="#FFFFFF" d="M126.298,196.369c0,1.674-1.358,3.026-3.026,3.026h-19.643c-1.668,0-3.026-1.353-3.026-3.026v-19.648
		c0-1.662,1.358-3.021,3.026-3.021h19.643c1.668,0,3.026,1.358,3.026,3.021V196.369z"/>
</g>
<g>
	<path fill="#FFFFFF" d="M162.852,196.369c0,1.674-1.364,3.026-3.026,3.026h-19.651c-1.668,0-3.026-1.353-3.026-3.026v-19.648
		c0-1.662,1.358-3.021,3.026-3.021h19.651c1.662,0,3.026,1.358,3.026,3.021V196.369z"/>
</g>
<g>
	<path fill="#FFFFFF" d="M199.396,196.369c0,1.674-1.363,3.026-3.026,3.026h-19.647c-1.662,0-3.026-1.353-3.026-3.026v-19.648
		c0-1.662,1.364-3.021,3.026-3.021h19.647c1.663,0,3.026,1.358,3.026,3.021V196.369z"/>
</g>
<g>
	<path fill="#05CC8E" d="M212.449,211.169V88.831c0-0.709-0.569-1.278-1.277-1.278H150v12.394h9.957
		c1.685,0,3.066,1.371,3.066,3.066v19.91c0,1.685-1.382,3.061-3.066,3.061H150v10.994h9.957c1.685,0,3.066,1.371,3.066,3.067v19.91
		c0,1.695-1.382,3.066-3.066,3.066H150v10.994h9.957c1.685,0,3.066,1.377,3.066,3.061v19.91c0,1.695-1.382,3.066-3.066,3.066H150
		v12.395h61.172C211.88,212.447,212.449,211.878,212.449,211.169z M200.055,196.986c0,1.695-1.382,3.066-3.066,3.066h-19.909
		c-1.685,0-3.066-1.371-3.066-3.066v-19.91c0-1.684,1.382-3.061,3.066-3.061h19.909c1.685,0,3.066,1.377,3.066,3.061V196.986z
		 M200.055,159.955c0,1.695-1.382,3.066-3.066,3.066h-19.909c-1.685,0-3.066-1.371-3.066-3.066v-19.91
		c0-1.696,1.382-3.067,3.066-3.067h19.909c1.685,0,3.066,1.371,3.066,3.067V159.955z M200.055,122.923
		c0,1.685-1.382,3.061-3.066,3.061h-19.909c-1.685,0-3.066-1.376-3.066-3.061v-19.91c0-1.696,1.382-3.066,3.066-3.066h19.909
		c1.685,0,3.066,1.371,3.066,3.066V122.923z"/>
	<path fill="#05CC8E" d="M150,1.805v67.906h61.172c10.547,0,19.119,8.573,19.119,19.12v122.338c0,10.548-8.572,19.12-19.119,19.12
		H150v67.906c81.848,0,148.197-66.35,148.197-148.195S231.848,1.805,150,1.805z"/>
	<path fill="#00DEA7" d="M140.045,200.053c-1.69,0-3.066-1.371-3.066-3.066v-19.91c0-1.684,1.376-3.061,3.066-3.061H150v-10.994
		h-9.955c-1.69,0-3.066-1.371-3.066-3.066v-19.91c0-1.696,1.376-3.067,3.066-3.067H150v-10.994h-9.955
		c-1.69,0-3.066-1.376-3.066-3.061v-19.91c0-1.696,1.376-3.066,3.066-3.066H150V87.553H88.824c-0.703,0-1.271,0.569-1.271,1.278
		v122.338c0,0.709,0.568,1.278,1.271,1.278H150v-12.395H140.045z M125.983,196.986c0,1.695-1.376,3.066-3.066,3.066h-19.903
		c-1.69,0-3.066-1.371-3.066-3.066v-19.91c0-1.684,1.376-3.061,3.066-3.061h19.903c1.69,0,3.066,1.377,3.066,3.061V196.986z
		 M125.983,159.955c0,1.695-1.376,3.066-3.066,3.066h-19.903c-1.69,0-3.066-1.371-3.066-3.066v-19.91
		c0-1.696,1.376-3.067,3.066-3.067h19.903c1.69,0,3.066,1.371,3.066,3.067V159.955z M125.983,122.923
		c0,1.685-1.376,3.061-3.066,3.061h-19.903c-1.69,0-3.066-1.376-3.066-3.061v-19.91c0-1.696,1.376-3.066,3.066-3.066h19.903
		c1.69,0,3.066,1.371,3.066,3.066V122.923z"/>
	<path fill="#00DEA7" d="M88.824,230.289c-10.541,0-19.113-8.572-19.113-19.12V88.831c0-10.547,8.572-19.12,19.113-19.12H150V1.805
		C68.154,1.805,1.804,68.154,1.804,150S68.154,298.195,150,298.195v-67.906H88.824z"/>
	<path fill="#FFFFFF" d="M159.957,163.021c1.685,0,3.066-1.371,3.066-3.066v-19.91c0-1.696-1.382-3.067-3.066-3.067H150v26.043
		H159.957z"/>
	<path fill="#FFFFFF" d="M136.979,140.045v19.91c0,1.695,1.376,3.066,3.066,3.066H150v-26.043h-9.955
		C138.354,136.979,136.979,138.349,136.979,140.045z"/>
</g>
</svg>
