<?xml version="1.0" encoding="utf-8"?>
<!-- Generator: Adobe Illustrator 16.0.0, SVG Export Plug-In . SVG Version: 6.00 Build 0)  -->
<!DOCTYPE svg PUBLIC "-//W3C//DTD SVG 1.1//EN" "http://www.w3.org/Graphics/SVG/1.1/DTD/svg11.dtd">
<svg version="1.1" xmlns="http://www.w3.org/2000/svg" xmlns:xlink="http://www.w3.org/1999/xlink" x="0px" y="0px" width="400px"
	 height="400px" viewBox="0 0 400 400" enable-background="new 0 0 400 400" xml:space="preserve">
<g id="Layer_1">
	<g>
		<g display="none">
			<path display="inline" fill="#05CC8E" d="M200,2.086v78.706h14.722c4.848,0,8.788,3.937,8.788,8.792V176.5h86.912
				c4.849,0,8.789,3.936,8.789,8.788v29.433c0,4.855-3.934,8.795-8.789,8.795H223.51v86.905c0,4.855-3.94,8.796-8.788,8.796H200
				v78.697c109.306,0,197.916-88.61,197.916-197.912C397.916,90.697,309.306,2.086,200,2.086z"/>
			<path display="inline" fill="#00DEA7" d="M185.286,319.217c-4.852,0-8.788-3.94-8.788-8.788v-86.913h-86.92
				c-4.855,0-8.788-3.939-8.788-8.795v-29.433c-0.004-4.852,3.933-8.788,8.784-8.788h86.924V89.58c0-4.848,3.937-8.789,8.788-8.789
				H200V2.086C90.694,2.086,2.084,90.697,2.084,200.002c0,109.302,88.61,197.912,197.916,197.912v-78.697H185.286z"/>
		</g>
		<g display="none">
			<path display="inline" fill="#05CC8E" d="M200,2.086v114.382h62.921V91.011c0-1.586,0.931-3.037,2.428-3.688
				c1.497-0.562,3.22-0.283,4.344,0.9l46.517,46.644c1.582,1.548,1.582,4.064,0,5.616l-46.517,46.694
				c-1.124,1.183-2.8,1.493-4.344,0.845c-1.45-0.613-2.428-2.059-2.428-3.684v-28.827H200v89.033h64.643
				c3.507,0,6.407-2.893,6.407-6.399v-32.511c0-1.082,0.419-2.06,1.117-2.847l31.15-31.255c1.125-1.109,2.901-1.493,4.344-0.884
				c1.497,0.647,2.474,2.098,2.474,3.696v70.712c0,25.248-13.356,38.559-38.573,38.559H200v114.3
				c109.306,0,197.916-88.61,197.916-197.912C397.916,90.697,309.306,2.086,200,2.086z"/>
			<path display="inline" fill="#00DEA7" d="M137.094,283.614v25.363c0,1.645-0.981,3.041-2.474,3.646
				c-0.47,0.202-0.981,0.334-1.493,0.334c-1.032,0-2.056-0.427-2.854-1.156l-46.516-46.679c-1.54-1.489-1.54-4.002,0-5.585
				l46.516-46.717c1.171-1.109,2.854-1.497,4.348-0.846c1.493,0.559,2.474,2.062,2.474,3.661v28.908H200v-89.033h-64.729
				c-3.502,0-6.353,2.908-6.353,6.411v32.546c0,1.02-0.415,2.005-1.164,2.808l-31.201,31.236c-0.702,0.744-1.726,1.179-2.757,1.179
				c-0.516,0-1.028-0.093-1.536-0.295c-1.497-0.604-2.478-2.048-2.478-3.677v-70.678c0-25.259,13.31-38.573,38.577-38.573H200V2.086
				C90.694,2.086,2.084,90.697,2.084,200.002c0,109.302,88.61,197.912,197.916,197.912v-114.3H137.094z"/>
		</g>
		<g display="none">
			<path display="inline" fill="#05CC8E" d="M200,2.086v201.965l98.749-98.749c3.428-3.428,8.997-3.432,12.426,0l20.811,20.811
				c3.429,3.432,3.437,9.001,0,12.434L200,270.536v127.378c109.306,0,197.916-88.61,197.916-197.912
				C397.916,90.697,309.306,2.086,200,2.086z"/>
			<path display="inline" fill="#00DEA7" d="M175.831,294.706c-3.432,3.428-9.001,3.428-12.434,0l-1.376-1.381l-19.434-19.438
				l-74.571-74.567c-3.433-3.432-3.437-9.001-0.004-12.434l20.814-20.811c3.425-3.429,8.998-3.429,12.43,0.008l68.355,68.354
				L200,204.051V2.086C90.694,2.086,2.084,90.697,2.084,200.002c0,109.302,88.61,197.912,197.916,197.912V270.536L175.831,294.706z"
				/>
		</g>
		<g>
			<path fill="#05CC8E" d="M200,2.082v98.784c8.082,0,14.861,1.532,20.136,4.561c8.936,5.112,13.474,14.458,13.474,27.784
				c0,1.478-0.062,2.948-0.171,4.39c-0.303,3.972-1.024,7.896-2.172,11.666c-4.22,13.989-13.923,24.313-25.31,26.942
				c-1.993,0.465-3.972,0.698-5.957,0.698v8.451c0.008,0,0.008,0,0.008,0c2.249,0,4.46,0.074,6.64,0.17
				c13.271,0.69,44.096,4.852,44.096,28.524c0,14.854-3.25,33.834-8.943,52.07c-8.485,27.303-23.913,56.491-41.792,56.491
				c0,0,0,0-0.008,0v75.3c109.306,0,197.916-88.61,197.916-197.916C397.916,90.693,309.306,2.082,200,2.082z M228.707,99.95
				c0.636-15.595,9.463-22.563,28.521-22.563c13.023,0,28.56,4.766,28.56,27.47c0,20.523-12.821,37.212-28.56,37.212
				c-5.034,0-9.99-1.769-14.342-5.123c0.078-1.229,0.108-2.475,0.108-3.735C242.994,118.209,237.542,105.589,228.707,99.95z
				 M257.228,266.891c-1.9,0-3.785-0.388-5.724-1.187c5.491-18.119,8.648-36.867,8.648-51.651c0-18.018-16.196-31.914-40.18-35.304
				c8.773-4.84,16.188-14.769,20.253-27.524c5.15-0.95,10.859-1.431,17.002-1.431c10.138,0,43.235,1.749,43.235,24.332
				C300.463,209.073,280.257,266.891,257.228,266.891z"/>
			<path fill="#00DEA7" d="M158.185,266.123c-5.678-18.236-8.943-37.224-8.943-52.07c0-23.673,30.84-27.834,44.096-28.524
				c2.172-0.097,4.406-0.17,6.663-0.17v-8.451c-1.97,0-3.948-0.233-5.957-0.706c-11.255-2.676-20.919-12.992-25.232-26.915
				c-1.163-3.754-1.923-7.652-2.233-11.596c-0.124-1.478-0.187-2.975-0.187-4.479c0-13.082,4.538-22.374,13.497-27.613
				c5.344-3.134,12.108-4.731,20.105-4.731c0,0,0,0,0.008,0V2.082C90.694,2.082,2.084,90.693,2.084,199.998
				c0,109.306,88.61,197.916,197.916,197.916v-75.3C182.105,322.599,166.67,293.418,158.185,266.123z M142.749,77.387
				c19.655,0,28.001,6.608,28.544,22.754c-8.85,5.747-14.311,18.293-14.311,33.07c0,1.288,0.039,2.575,0.132,3.847
				c-4.336,3.281-9.285,5.011-14.365,5.011c-15.467,0-28.537-17.041-28.537-37.212C114.212,80.958,132.107,77.387,142.749,77.387z
				 M142.788,266.891c-23.029,0-43.243-57.817-43.243-92.765c0-22.583,33.089-24.332,43.243-24.332c6.198,0,11.93,0.489,17.08,1.458
				c3.405,10.41,10.223,21.939,20.198,27.485c-24.006,3.382-40.233,17.29-40.233,35.315c0,14.815,3.149,33.556,8.648,51.651
				C146.581,266.495,144.657,266.891,142.788,266.891z"/>
		</g>
	</g>
</g>
<g id="Layer_2">
</g>
</svg>
