<?xml version="1.0" encoding="utf-8"?>
<!-- Generator: Adobe Illustrator 16.0.0, SVG Export Plug-In . SVG Version: 6.00 Build 0)  -->
<!DOCTYPE svg PUBLIC "-//W3C//DTD SVG 1.1//EN" "http://www.w3.org/Graphics/SVG/1.1/DTD/svg11.dtd">
<svg version="1.1" id="Layer_1" xmlns="http://www.w3.org/2000/svg" xmlns:xlink="http://www.w3.org/1999/xlink" x="0px" y="0px"
	 width="300px" height="68.595px" viewBox="0 0 300 68.595" enable-background="new 0 0 300 68.595" xml:space="preserve">
<g>
	<path fill="#05CC8E" d="M36.043,38.445c4.441-3.333,7.328-8.625,7.328-14.606c0-10.09-8.18-18.27-18.27-18.27
		c-10.089,0-18.269,8.18-18.269,18.27c0,5.981,2.886,11.273,7.328,14.606l-8.01,24.349c0,0.862,0.609,1.562,1.362,1.562h17.588
		H42.69c0.752,0,1.362-0.7,1.362-1.562L36.043,38.445z M33.983,29.493c-2.372,2.374-5.527,3.68-8.882,3.68
		c-3.354,0-6.51-1.307-8.882-3.68c-0.679-0.678-0.679-1.779,0-2.458c0.679-0.679,1.779-0.679,2.458,0
		c1.715,1.716,3.997,2.661,6.423,2.661c2.427,0,4.708-0.945,6.423-2.661c0.679-0.679,1.78-0.679,2.459,0
		C34.663,27.714,34.663,28.814,33.983,29.493z"/>
</g>
<g>
	<path fill="#00DEA7" d="M16.22,29.493c-0.679-0.678-0.679-1.779,0-2.458c0.679-0.679,1.779-0.679,2.458,0
		c1.715,1.716,3.997,2.661,6.423,2.661V5.569c-10.089,0-18.269,8.18-18.269,18.27c0,5.981,2.886,11.273,7.328,14.606l-8.01,24.349
		c0,0.862,0.609,1.562,1.362,1.562h17.588V33.173C21.747,33.173,18.592,31.867,16.22,29.493z"/>
</g>
<g>
	<path fill="#FFFFFF" d="M102.932,41.604v22.808H91.058V41.294c0-3.353-0.512-5.817-1.531-7.391
		c-1.025-1.573-2.676-2.362-4.957-2.362c-2.277,0-4.296,0.854-6.055,2.556c-1.756,1.707-2.633,4.209-2.633,7.508v22.808H64.09
		V22.105h11.793v4.798c3.247-3.669,6.972-5.504,11.167-5.504c2.67,0,5.098,0.785,7.271,2.356c2.175,1.576,3.816,3.49,4.916,5.741
		c1.623-2.565,3.813-4.558,6.563-5.975c2.756-1.416,5.52-2.123,8.297-2.123c4.981,0,8.992,1.481,12.032,4.443
		c3.038,2.963,4.561,7.249,4.561,12.856v25.715h-11.872V41.294c0-6.5-2.388-9.753-7.156-9.753c-2.358,0-4.402,0.854-6.132,2.556
		C103.798,35.804,102.932,38.306,102.932,41.604z"/>
	<path fill="#FFFFFF" d="M180.178,43.26c0,6.134-2.124,11.298-6.37,15.491c-4.247,4.194-9.58,6.29-16.001,6.29
		c-6.423,0-11.755-2.096-16.004-6.29c-4.245-4.193-6.37-9.357-6.37-15.491c0-6.136,2.125-11.313,6.37-15.531
		c4.249-4.222,9.581-6.33,16.004-6.33c6.421,0,11.754,2.108,16.001,6.33C178.054,31.947,180.178,37.124,180.178,43.26z
		 M147.31,43.26c0,3.456,0.982,6.275,2.947,8.449c1.967,2.179,4.482,3.267,7.55,3.267c3.064,0,5.58-1.088,7.548-3.267
		c1.966-2.174,2.95-4.993,2.95-8.449c0-3.461-0.984-6.294-2.95-8.495c-1.968-2.201-4.483-3.303-7.548-3.303
		c-3.067,0-5.583,1.102-7.55,3.303C148.292,36.966,147.31,39.799,147.31,43.26z"/>
	<path fill="#FFFFFF" d="M204.095,65.041c-5.007,0-9.476-2.124-13.407-6.369c-3.931-4.244-5.896-9.516-5.896-15.808
		c0-6.289,1.912-11.44,5.738-15.449c3.826-4.013,8.309-6.017,13.446-6.017c5.136,0,9.331,1.808,12.58,5.427V6.066h11.797v58.346
		h-11.797V58.83C213.254,62.968,209.098,65.041,204.095,65.041z M196.662,43.339c0,3.406,1.025,6.196,3.068,8.37
		c2.045,2.179,4.427,3.267,7.155,3.267c2.726,0,5.046-1.088,6.957-3.267c1.912-2.174,2.871-4.978,2.871-8.411
		c0-3.433-0.959-6.288-2.871-8.574c-1.911-2.278-4.258-3.42-7.036-3.42c-2.781,0-5.167,1.155-7.155,3.461
		C197.661,37.072,196.662,39.929,196.662,43.339z"/>
	<path fill="#FFFFFF" d="M235.798,16.721c-1.337-1.339-2.004-2.978-2.004-4.914c0-1.939,0.667-3.578,2.004-4.915
		c1.338-1.338,2.973-2.007,4.914-2.007c1.94,0,3.579,0.669,4.915,2.007c1.335,1.337,2.005,2.976,2.005,4.915
		c0,1.937-0.67,3.575-2.005,4.914c-1.336,1.337-2.975,2.007-4.915,2.007C238.771,18.728,237.136,18.058,235.798,16.721z
		 M246.609,64.412h-11.794V22.105h11.794V64.412z"/>
	<path fill="#FFFFFF" d="M296.568,43.26c0,6.134-2.125,11.298-6.37,15.491c-4.246,4.194-9.579,6.29-16.003,6.29
		c-6.421,0-11.755-2.096-16-6.29c-4.247-4.193-6.369-9.357-6.369-15.491c0-6.136,2.122-11.313,6.369-15.531
		c4.245-4.222,9.579-6.33,16-6.33c6.424,0,11.757,2.108,16.003,6.33C294.443,31.947,296.568,37.124,296.568,43.26z M263.701,43.26
		c0,3.456,0.982,6.275,2.946,8.449c1.967,2.179,4.485,3.267,7.548,3.267c3.068,0,5.583-1.088,7.551-3.267
		c1.965-2.174,2.948-4.993,2.948-8.449c0-3.461-0.983-6.294-2.948-8.495c-1.968-2.201-4.482-3.303-7.551-3.303
		c-3.062,0-5.581,1.102-7.548,3.303C264.684,36.966,263.701,39.799,263.701,43.26z"/>
</g>
</svg>
