<?xml version="1.0" encoding="utf-8"?>
<!-- Generator: Adobe Illustrator 16.0.0, SVG Export Plug-In . SVG Version: 6.00 Build 0)  -->
<!DOCTYPE svg PUBLIC "-//W3C//DTD SVG 1.1//EN" "http://www.w3.org/Graphics/SVG/1.1/DTD/svg11.dtd">
<svg version="1.1" id="Layer_1" xmlns="http://www.w3.org/2000/svg" xmlns:xlink="http://www.w3.org/1999/xlink" x="0px" y="0px"
	 width="200px" height="200px" viewBox="0 0 200 200" enable-background="new 0 0 200 200" xml:space="preserve">
<g display="none">
	<path display="inline" fill="none" stroke="#00DEA7" stroke-width="4" stroke-linejoin="round" stroke-miterlimit="10" d="
		M165.517,62.205h-53.005c-3.443,0-6.235-2.792-6.235-6.236l-0.261-52.746"/>
	<path display="inline" fill="none" stroke="#00DEA7" stroke-width="4" stroke-linejoin="round" stroke-miterlimit="10" d="
		M165.517,183.797v6.501c0,3.442-2.795,6.237-6.234,6.237H25.208c-3.442,0-6.236-2.795-6.236-6.237V9.458
		c0-3.44,2.793-6.236,6.236-6.236h80.807l59.501,56.384v74.611"/>
	
		<line display="inline" fill="none" stroke="#00DEA7" stroke-width="4" stroke-linejoin="round" stroke-miterlimit="10" x1="47.034" y1="56.228" x2="87.566" y2="56.228"/>
	
		<line display="inline" fill="none" stroke="#00DEA7" stroke-width="4" stroke-linejoin="round" stroke-miterlimit="10" x1="47.034" y1="87.407" x2="143.691" y2="87.407"/>
	
		<line display="inline" fill="none" stroke="#00DEA7" stroke-width="4" stroke-linejoin="round" stroke-miterlimit="10" x1="47.034" y1="109.233" x2="143.691" y2="109.233"/>
	
		<line display="inline" fill="none" stroke="#00DEA7" stroke-width="4" stroke-linejoin="round" stroke-miterlimit="10" x1="47.034" y1="137.294" x2="128.103" y2="137.294"/>
	
		<line display="inline" fill="none" stroke="#00DEA7" stroke-width="4" stroke-linejoin="round" stroke-miterlimit="10" x1="47.034" y1="156.001" x2="106.276" y2="156.001"/>
	<polygon display="inline" fill="none" stroke="#00DEA7" stroke-width="4" stroke-miterlimit="10" points="174.804,183.801 
		174.804,168.26 189.984,168.266 189.984,149.644 174.554,149.644 174.554,134.218 155.938,134.218 155.938,149.644 
		140.507,149.644 140.507,168.26 155.688,168.266 155.688,183.801 	"/>
</g>
<g>
	<path fill="none" stroke="#00DEA7" stroke-width="9" stroke-linecap="round" stroke-linejoin="round" stroke-miterlimit="10" d="
		M99.999,7.222c51.212,0,92.727,41.514,92.727,92.727c0,51.212-41.515,92.727-92.727,92.727c-51.214,0-92.728-41.515-92.728-92.727
		C7.271,48.736,48.785,7.222,99.999,7.222z"/>
	<path fill="none" stroke="#00DEA7" stroke-width="9" stroke-linecap="round" stroke-linejoin="round" stroke-miterlimit="10" d="
		M99.999,177.72c-42.952,0-77.772-34.815-77.772-77.771"/>
	<path fill="none" stroke="#00DEA7" stroke-width="9" stroke-linecap="round" stroke-linejoin="round" stroke-miterlimit="10" d="
		M99.999,22.178c42.948,0,77.771,34.819,77.771,77.771"/>
	
		<polygon fill="none" stroke="#00DEA7" stroke-width="9" stroke-linecap="round" stroke-linejoin="round" stroke-miterlimit="10" points="
		111.963,111.913 138.884,111.913 138.884,87.984 111.963,87.984 111.963,61.063 91.024,61.066 91.024,87.984 64.103,87.984 
		64.103,111.913 91.024,111.913 91.024,138.834 111.963,138.834 	"/>
</g>
</svg>
